<svg xmlns="http://www.w3.org/2000/svg" version="1.1" height="103px" width="429px" viewBox="-10 -10 449 123" content="&lt;mxGraphModel dx=&quot;578&quot; dy=&quot;499&quot; grid=&quot;1&quot; gridSize=&quot;10&quot; guides=&quot;1&quot; tooltips=&quot;1&quot; connect=&quot;1&quot; arrows=&quot;1&quot; fold=&quot;1&quot; page=&quot;0&quot; pageScale=&quot;1&quot; pageWidth=&quot;827&quot; pageHeight=&quot;1169&quot; math=&quot;0&quot; shadow=&quot;0&quot;&gt;&lt;root&gt;&lt;mxCell id=&quot;0&quot;/&gt;&lt;mxCell id=&quot;1&quot; parent=&quot;0&quot;/&gt;&lt;mxCell id=&quot;4&quot; style=&quot;edgeStyle=none;html=1;exitX=0.755;exitY=0.5;exitDx=0;exitDy=0;exitPerimeter=0;entryX=0;entryY=0.5;entryDx=0;entryDy=0;entryPerimeter=0;&quot; edge=&quot;1&quot; parent=&quot;1&quot; source=&quot;2&quot; target=&quot;3&quot;&gt;&lt;mxGeometry relative=&quot;1&quot; as=&quot;geometry&quot;/&gt;&lt;/mxCell&gt;&lt;mxCell id=&quot;2&quot; value=&quot;&quot; style=&quot;shape=mxgraph.cisco.computers_and_peripherals.workstation;html=1;pointerEvents=1;dashed=0;fillColor=#036897;strokeColor=#ffffff;strokeWidth=2;verticalLabelPosition=bottom;verticalAlign=top;align=center;outlineConnect=0;&quot; vertex=&quot;1&quot; parent=&quot;1&quot;&gt;&lt;mxGeometry x=&quot;50&quot; y=&quot;50.5&quot; width=&quot;83&quot; height=&quot;62&quot; as=&quot;geometry&quot;/&gt;&lt;/mxCell&gt;&lt;mxCell id=&quot;6&quot; style=&quot;edgeStyle=none;html=1;exitX=1;exitY=0.5;exitDx=0;exitDy=0;exitPerimeter=0;entryX=0.245;entryY=0.5;entryDx=0;entryDy=0;entryPerimeter=0;&quot; edge=&quot;1&quot; parent=&quot;1&quot; source=&quot;3&quot; target=&quot;5&quot;&gt;&lt;mxGeometry relative=&quot;1&quot; as=&quot;geometry&quot;/&gt;&lt;/mxCell&gt;&lt;mxCell id=&quot;3&quot; value=&quot;&quot; style=&quot;shape=mxgraph.cisco.modems_and_phones.modem;html=1;pointerEvents=1;dashed=0;fillColor=#036897;strokeColor=#ffffff;strokeWidth=2;verticalLabelPosition=bottom;verticalAlign=top;align=center;outlineConnect=0;&quot; vertex=&quot;1&quot; parent=&quot;1&quot;&gt;&lt;mxGeometry x=&quot;240&quot; y=&quot;68&quot; width=&quot;77&quot; height=&quot;27&quot; as=&quot;geometry&quot;/&gt;&lt;/mxCell&gt;&lt;mxCell id=&quot;5&quot; value=&quot;&quot; style=&quot;shape=mxgraph.cisco.wireless.radio_tower;html=1;pointerEvents=1;dashed=0;fillColor=#036897;strokeColor=#ffffff;strokeWidth=2;verticalLabelPosition=bottom;verticalAlign=top;align=center;outlineConnect=0;&quot; vertex=&quot;1&quot; parent=&quot;1&quot;&gt;&lt;mxGeometry x=&quot;440&quot; y=&quot;30.5&quot; width=&quot;37&quot; height=&quot;101&quot; as=&quot;geometry&quot;/&gt;&lt;/mxCell&gt;&lt;/root&gt;&lt;/mxGraphModel&gt;"><style type="text/css"></style><path d="M 63.66 52 M 63.66 52 C 87.05 51.01 113.6 51.55 184.63 52 M 63.66 52 C 109.36 53.85 153.56 52.96 184.63 52" fill="none" stroke="#f0f0f0" stroke-linejoin="round" stroke-linecap="round" stroke-miterlimit="10" pointer-events="none"/><path d="M 182.97 48.4 C 182.97 48.4 182.97 48.4 182.97 48.4 M 182.97 48.4 C 182.97 48.4 182.97 48.4 182.97 48.4 M 184.68 52.53 C 185.16 51.56 186 51.04 186.65 50.27 M 184.68 52.53 C 185.51 51.71 185.97 50.9 186.65 50.27" fill="none" stroke="#f0f0f0" stroke-linejoin="round" stroke-linecap="round" stroke-miterlimit="10" pointer-events="none"/><path d="M 189.88 52 M 189.88 52 C 188.22 52.65 186.83 53.53 182.88 55.5 M 189.88 52 C 187.17 53.6 183.99 54.85 182.88 55.5 M 182.88 55.5 C 183.26 54.57 183.76 53.22 184.63 52 M 182.88 55.5 C 183.43 54.22 184.05 52.67 184.63 52 M 184.63 52 C 184.09 51.11 183.44 49.69 182.88 48.5 M 184.63 52 C 184.03 51.21 183.96 50.35 182.88 48.5 M 182.88 48.5 C 185.55 49.21 187.98 50.74 189.88 52 M 182.88 48.5 C 185.63 50.19 188.19 51.13 189.88 52" fill="none" stroke="#f0f0f0" stroke-linejoin="round" stroke-linecap="round" stroke-miterlimit="10" pointer-events="none"/><path d="M 0.81 21.22 C 0.81 21.22 0.81 21.22 0.81 21.22 M 0.81 21.22 C 0.81 21.22 0.81 21.22 0.81 21.22 M 0.94 33.26 C 6.27 27.77 8.56 23.2 11.44 21.19 M 0.94 33.26 C 3.47 30.79 5.86 26.13 11.44 21.19 M 1.07 45.3 C 7.98 36.12 15.7 30.82 22.07 21.15 M 1.07 45.3 C 5.42 39.6 11.78 33.48 22.07 21.15 M 1.21 57.34 C 9.62 47.07 18.62 37.43 32.7 21.12 M 1.21 57.34 C 10.36 47.43 19.83 36.96 32.7 21.12 M 0.68 70.14 C 15.11 50.5 33.76 33.48 43.33 21.08 M 0.68 70.14 C 13.57 54.27 27.36 39.44 43.33 21.08 M 0.82 82.18 C 22.34 59.01 38.74 37.55 53.96 21.05 M 0.82 82.18 C 14.4 68.27 26.99 52.33 53.96 21.05 M 6.86 87.43 C 26.75 65.16 47.63 39.93 64.59 21.01 M 6.86 87.43 C 28.49 64.09 48.23 40.97 64.59 21.01 M 16.83 88.15 C 32.34 72.6 43.75 56.11 75.22 20.98 M 16.83 88.15 C 28.98 72.61 43.09 57.21 75.22 20.98 M 27.46 88.11 C 46.38 68.43 63.81 47.32 85.19 21.7 M 27.46 88.11 C 40.08 74.48 51.96 60 85.19 21.7 M 38.09 88.08 C 55.94 69.01 70.3 49.99 85.33 33.74 M 38.09 88.08 C 52.86 71.5 67.49 53.43 85.33 33.74 M 48.72 88.04 C 61.22 73.16 72.1 61.71 84.8 46.54 M 48.72 88.04 C 56.05 78.2 65.29 69.47 84.8 46.54 M 59.35 88.01 C 66.46 80.31 73.14 72.71 84.94 58.58 M 59.35 88.01 C 66.95 80.13 75.88 70.88 84.94 58.58 M 69.98 87.98 C 76 80.28 82.54 73.39 85.07 70.62 M 69.98 87.98 C 75 83.28 79.23 77.71 85.07 70.62" fill="none" stroke="" stroke-linejoin="round" stroke-linecap="round" stroke-miterlimit="10" pointer-events="none"/><path d="M 68.76 74.06 M 68.76 74.06 C 67.83 74.56 65.92 72.87 70.34 70.91 M 68.76 74.06 C 67.61 70.82 63.04 69.85 70.34 70.91 M 70.34 70.91 C 73.35 70.11 83.78 64.68 59.83 64.09 M 70.34 70.91 C 72.36 72.62 82.75 62.78 59.83 64.09" fill="none" stroke="#000000" stroke-width="2" stroke-linejoin="round" stroke-linecap="round" stroke-miterlimit="10" pointer-events="none"/><path d="M 13.86 67.01 C 13.86 67.01 13.86 67.01 13.86 67.01 M 13.86 67.01 C 13.86 67.01 13.86 67.01 13.86 67.01 M 17.27 75.28 C 18.99 74.37 20.61 72.32 24.49 66.98 M 17.27 75.28 C 20.47 72.07 22.61 68.91 24.49 66.98 M 27.9 75.25 C 30.25 73.8 32.38 70.04 35.12 66.94 M 27.9 75.25 C 29.94 72.88 32.7 70.21 35.12 66.94 M 38.53 75.21 C 40.41 72.09 44.9 67.96 45.75 66.91 M 38.53 75.21 C 40.58 73.16 42.27 70.41 45.75 66.91 M 49.16 75.18 C 51.77 73.42 53.13 70.47 55.07 68.39 M 49.16 75.18 C 50.25 73.95 52.39 72.35 55.07 68.39" fill="none" stroke="#036897" stroke-linejoin="round" stroke-linecap="round" stroke-miterlimit="10" pointer-events="none"/><path d="M 53.05 66.64 C 53.05 66.64 53.05 66.64 53.05 66.64 M 53.05 66.64 C 53.05 66.64 53.05 66.64 53.05 66.64" fill="none" stroke="#036897" stroke-linejoin="round" stroke-linecap="round" stroke-miterlimit="10" pointer-events="none"/><path d="M 13.86 67.01 C 13.86 67.01 13.86 67.01 13.86 67.01 M 13.86 67.01 C 13.86 67.01 13.86 67.01 13.86 67.01 M 16.61 76.04 C 18.44 73.62 20.53 71.63 24.49 66.98 M 16.61 76.04 C 18.91 73.68 21.51 70.93 24.49 66.98 M 27.24 76 C 29.32 71.6 34.1 68.76 35.12 66.94 M 27.24 76 C 29.44 72.8 32.22 70.22 35.12 66.94 M 37.87 75.97 C 41.93 72.22 42.83 69.61 45.75 66.91 M 37.87 75.97 C 40.25 74.25 41.87 71.52 45.75 66.91 M 48.5 75.93 C 50.66 73.69 53.53 69.77 55.07 68.39 M 48.5 75.93 C 51.34 73.11 53.47 70.46 55.07 68.39" fill="none" stroke="#036897" stroke-linejoin="round" stroke-linecap="round" stroke-miterlimit="10" pointer-events="none"/><path d="M 53.05 66.64 C 53.05 66.64 53.05 66.64 53.05 66.64 M 53.05 66.64 C 53.05 66.64 53.05 66.64 53.05 66.64" fill="none" stroke="#036897" stroke-linejoin="round" stroke-linecap="round" stroke-miterlimit="10" pointer-events="none"/><path d="M 9.64 66 C 9.64 66 9.64 66 9.64 66 M 9.64 66 C 9.64 66 9.64 66 9.64 66 M 20.27 65.97 C 21.51 64.86 22.03 63.77 22.9 62.95 M 20.27 65.97 C 21.15 65.12 21.97 63.92 22.9 62.95 M 30.9 65.93 C 31.97 64.6 32.72 63.96 33.53 62.91 M 30.9 65.93 C 31.37 65.14 32.2 64.56 33.53 62.91 M 41.53 65.9 C 42.29 65.11 42.99 64.32 44.16 62.88 M 41.53 65.9 C 42.28 65.18 43.32 64.19 44.16 62.88 M 52.16 65.86 C 53.22 64.5 54.37 63.3 54.79 62.84 M 52.16 65.86 C 53.04 65.07 53.77 64.09 54.79 62.84" fill="none" stroke="#036897" stroke-linejoin="round" stroke-linecap="round" stroke-miterlimit="10" pointer-events="none"/><path d="M 9.64 66 C 9.64 66 9.64 66 9.64 66 M 9.64 66 C 9.64 66 9.64 66 9.64 66 M 14.37 72.76 C 16.05 69.94 19.57 68.36 20.27 65.97 M 14.37 72.76 C 15.93 71.29 17.29 69.81 20.27 65.97 M 25 72.72 C 27.49 70.76 28.81 67.29 30.9 65.93 M 25 72.72 C 26.72 70.37 28.36 69.21 30.9 65.93 M 35.63 72.69 C 37.61 71.21 38.77 69.05 41.53 65.9 M 35.63 72.69 C 36.48 70.86 38.17 70.1 41.53 65.9 M 46.26 72.66 C 48.54 70.17 49.1 68.06 52.16 65.86 M 46.26 72.66 C 47.5 71.22 49.66 69.11 52.16 65.86" fill="none" stroke="#036897" stroke-linejoin="round" stroke-linecap="round" stroke-miterlimit="10" pointer-events="none"/><path d="M 14.13 72.49 M 14.13 72.49 C 13.93 71.51 14.61 69.72 14.13 66.7 M 14.13 72.49 C 14.05 70.91 14.23 69.3 14.13 66.7 M 14.13 66.7 C 24.59 66.14 31.17 67.21 53 66.7 M 14.13 66.7 C 22.89 66.88 31.9 67.11 53 66.7 M 53 66.7 C 52.88 68.69 52.87 70.27 53 72.49 M 53 66.7 C 52.77 68.7 53.14 71.02 53 72.49 M 53 72.49 C 39.49 71.34 28.63 71.26 14.13 72.49 M 53 72.49 C 38.38 71.96 22.87 72.81 14.13 72.49 M 53 72.49 M 53 72.49 C 53.41 70.18 53.53 68.47 53 66.7 M 53 72.49 C 52.67 70.98 53.09 69.05 53 66.7 M 53 66.7 C 54.81 63.25 58.83 60.35 60.36 58.82 M 53 66.7 C 56.04 63.24 58.36 60.36 60.36 58.82 M 60.36 58.82 C 60.85 60.66 60.71 62.81 60.36 64.61 M 60.36 58.82 C 60.14 60.27 60.27 61.5 60.36 64.61 M 60.36 64.61 C 59.58 66.12 56.96 68.84 53 72.49 M 60.36 64.61 C 57.67 67.34 55.61 69.15 53 72.49 M 14.13 73.54 M 14.13 73.54 C 14.56 70.95 14.61 68.72 14.13 66.7 M 14.13 73.54 C 14.19 72.29 14.15 70.33 14.13 66.7 M 14.13 66.7 C 26.23 64.44 38.27 66.1 53 66.7 M 14.13 66.7 C 29.1 66.61 45.64 67.75 53 66.7 M 53 66.7 C 52.36 68.73 52.41 69.97 53 73.54 M 53 66.7 C 52.77 68.57 52.77 71.23 53 73.54 M 53 73.54 C 41.26 74.99 26.73 74.26 14.13 73.54 M 53 73.54 C 42.07 73.28 30.03 73.91 14.13 73.54 M 53 73.54 M 53 73.54 C 52.48 70.83 52.61 68.95 53 66.7 M 53 73.54 C 52.9 71.18 52.71 68.7 53 66.7 M 53 66.7 C 54.96 65.28 56.22 61.88 60.36 58.82 M 53 66.7 C 55.92 63.57 58.46 60.71 60.36 58.82 M 60.36 58.82 C 60.85 60.4 59.74 62.31 60.36 65.66 M 60.36 58.82 C 60.36 60.31 60.16 62.47 60.36 65.66 M 60.36 65.66 C 58.16 68.14 57.36 68.06 53 73.54 M 60.36 65.66 C 58.45 67.56 55.86 70.66 53 73.54 M 63.51 57.78 M 63.51 57.78 C 60.66 60.49 58.73 62.62 57.73 65.66 M 63.51 57.78 C 61.13 60.59 58.9 63.87 57.73 65.66 M 57.73 65.66 C 46.8 66.3 33.87 65 9.94 65.66 M 57.73 65.66 C 43.98 66.01 28.69 65.81 9.94 65.66 M 9.94 65.66 C 12.43 62.83 14.59 62.09 17.28 57.78 M 9.94 65.66 C 11.78 63.55 13.75 62.16 17.28 57.78 M 17.28 57.78 C 36.77 58.68 54.72 60.01 63.51 57.78 M 17.28 57.78 C 27.27 56.83 36.83 57.85 63.51 57.78 M 9.94 68.28 M 9.94 68.28 C 10.12 67.51 9.86 66.68 9.94 65.66 M 9.94 68.28 C 10.07 67.59 10.08 67.05 9.94 65.66 M 9.94 65.66 C 21.32 66.46 28.5 66.65 55.63 65.66 M 9.94 65.66 C 22.7 65.6 33.68 65.98 55.63 65.66 M 55.63 65.66 C 55.84 66.52 55.5 67.36 55.63 68.28 M 55.63 65.66 C 55.62 66.14 55.65 66.82 55.63 68.28 M 55.63 68.28 C 41.1 69.32 24.94 69 9.94 68.28 M 55.63 68.28 C 45.69 68.43 36.31 68.98 9.94 68.28" fill="none" stroke="#ffffff" stroke-width="2" stroke-linejoin="round" stroke-linecap="round" stroke-miterlimit="10" pointer-events="none"/><path d="M 9.64 66 C 9.64 66 9.64 66 9.64 66 M 9.64 66 C 9.64 66 9.64 66 9.64 66 M 20.27 65.97 C 20.9 65.63 21.49 64.89 22.9 62.95 M 20.27 65.97 C 21.44 64.8 22.22 63.65 22.9 62.95 M 30.9 65.93 C 31.76 65.41 32.53 64.04 33.53 62.91 M 30.9 65.93 C 31.64 65.07 32.65 64.1 33.53 62.91 M 41.53 65.9 C 42.22 64.76 43.85 63.26 44.16 62.88 M 41.53 65.9 C 42.28 65.15 42.89 64.15 44.16 62.88 M 52.16 65.86 C 53.33 65.08 53.93 63.77 54.79 62.84 M 52.16 65.86 C 52.65 65.32 53.6 64.6 54.79 62.84" fill="none" stroke="#036897" stroke-linejoin="round" stroke-linecap="round" stroke-miterlimit="10" pointer-events="none"/><path d="M 63.51 57.78 M 63.51 57.78 C 62.23 59.93 59.24 62.63 57.73 65.66 M 63.51 57.78 C 61.8 60.26 60.02 61.46 57.73 65.66 M 57.73 65.66 C 42.72 63.89 28.74 66.21 9.94 65.66 M 57.73 65.66 C 46 65.95 36.22 65.51 9.94 65.66 M 9.94 65.66 C 11.66 63.57 13.62 61.86 17.28 57.78 M 9.94 65.66 C 12.07 63.61 14.49 61.22 17.28 57.78 M 17.28 57.78 C 32.58 55.88 52.53 56.61 63.51 57.78 M 17.28 57.78 C 31.17 57.12 46.06 57.49 63.51 57.78" fill="none" stroke="#ffffff" stroke-width="2" stroke-linejoin="round" stroke-linecap="round" stroke-miterlimit="10" pointer-events="none"/><path d="M 9.64 66 C 9.64 66 9.64 66 9.64 66 M 9.64 66 C 9.64 66 9.64 66 9.64 66 M 14.37 72.76 C 15.78 72.01 17.1 70.33 20.27 65.97 M 14.37 72.76 C 16.99 70.13 18.74 67.55 20.27 65.97 M 25 72.72 C 26.92 71.54 28.66 68.46 30.9 65.93 M 25 72.72 C 26.67 70.79 28.93 68.6 30.9 65.93 M 35.63 72.69 C 37.17 70.14 40.84 66.75 41.53 65.9 M 35.63 72.69 C 37.31 71.01 38.69 68.76 41.53 65.9 M 46.26 72.66 C 48.87 70.9 50.22 67.95 52.16 65.86 M 46.26 72.66 C 47.35 71.43 49.48 69.82 52.16 65.86" fill="none" stroke="#036897" stroke-linejoin="round" stroke-linecap="round" stroke-miterlimit="10" pointer-events="none"/><path d="M 9.94 68.28 M 9.94 68.28 C 10.2 67.15 9.96 66.17 9.94 65.66 M 9.94 68.28 C 9.9 67.7 9.83 66.76 9.94 65.66 M 9.94 65.66 C 24.41 64.17 39.91 66.49 55.63 65.66 M 9.94 65.66 C 20.15 65.51 32.3 65.06 55.63 65.66 M 55.63 65.66 C 55.54 66.5 55.48 67.44 55.63 68.28 M 55.63 65.66 C 55.61 66.44 55.69 67.12 55.63 68.28 M 55.63 68.28 C 37.68 66.45 24.39 67.17 9.94 68.28 M 55.63 68.28 C 41.03 67.64 27.44 68.01 9.94 68.28" fill="none" stroke="#ffffff" stroke-width="2" stroke-linejoin="round" stroke-linecap="round" stroke-miterlimit="10" pointer-events="none"/><path d="M 55.35 65.98 C 55.35 65.98 55.35 65.98 55.35 65.98 M 55.35 65.98 C 55.35 65.98 55.35 65.98 55.35 65.98" fill="none" stroke="#036897" stroke-linejoin="round" stroke-linecap="round" stroke-miterlimit="10" pointer-events="none"/><path d="M 10.08 23.98 C 10.08 23.98 10.08 23.98 10.08 23.98 M 10.08 23.98 C 10.08 23.98 10.08 23.98 10.08 23.98 M 20.71 23.95 C 21.35 23.56 21.94 22.53 22.68 21.69 M 20.71 23.95 C 21.27 23.3 22.02 22.58 22.68 21.69 M 31.34 23.91 C 31.86 23.06 33.08 21.94 33.31 21.65 M 31.34 23.91 C 31.9 23.36 32.36 22.6 33.31 21.65 M 41.97 23.88 C 42.85 23.29 43.3 22.31 43.94 21.62 M 41.97 23.88 C 42.34 23.47 43.05 22.94 43.94 21.62 M 52.6 23.85 C 53.6 22.82 54.03 21.96 54.57 21.58 M 52.6 23.85 C 53.08 23.38 53.53 22.51 54.57 21.58" fill="none" stroke="#036897" stroke-linejoin="round" stroke-linecap="round" stroke-miterlimit="10" pointer-events="none"/><path d="M 14.98 60.04 C 14.98 60.04 14.98 60.04 14.98 60.04 M 14.98 60.04 C 14.98 60.04 14.98 60.04 14.98 60.04 M 21.01 65.28 C 21.92 64.08 22.97 63.08 24.95 60.76 M 21.01 65.28 C 22.16 64.11 23.46 62.73 24.95 60.76 M 31.64 65.25 C 32.68 63.05 35.07 61.63 35.58 60.72 M 31.64 65.25 C 32.74 63.65 34.13 62.36 35.58 60.72 M 42.27 65.22 C 44.3 63.34 44.75 62.04 46.21 60.69 M 42.27 65.22 C 43.46 64.36 44.27 62.99 46.21 60.69" fill="none" stroke="#036897" stroke-linejoin="round" stroke-linecap="round" stroke-miterlimit="10" pointer-events="none"/><path d="M 53.25 60.19 C 53.25 60.19 53.25 60.19 53.25 60.19 M 53.25 60.19 C 53.25 60.19 53.25 60.19 53.25 60.19" fill="none" stroke="#036897" stroke-linejoin="round" stroke-linecap="round" stroke-miterlimit="10" pointer-events="none"/><path d="M 55.63 68.28 M 55.63 68.28 C 55.88 67.74 55.57 67.03 55.63 65.66 M 55.63 68.28 C 55.5 67.72 55.6 67.12 55.63 65.66 M 55.63 65.66 C 58.4 63.7 60.42 61.16 63.51 57.78 M 55.63 65.66 C 57.4 64.23 59.04 62.13 63.51 57.78 M 63.51 57.78 C 63.74 58.64 63.49 59.51 63.51 60.4 M 63.51 57.78 C 63.57 58.65 63.57 59.29 63.51 60.4 M 63.51 60.4 C 61.76 61.79 59.12 65.06 55.63 68.28 M 63.51 60.4 C 61.48 61.84 60.46 63.83 55.63 68.28 M 63.51 21 M 63.51 21 C 53.21 21.25 42.75 21.16 22.01 21 M 63.51 21 C 50.8 22.04 39.66 21.59 22.01 21 M 22.01 21 C 17.46 21.6 13.18 22.74 9.94 24.15 M 22.01 21 C 18.49 22.56 14.55 23.37 9.94 24.15 M 9.94 24.15 C 24.4 23.13 40.93 25.37 57.73 24.15 M 9.94 24.15 C 21.91 25.33 32.19 25.53 57.73 24.15 M 57.73 24.15 C 59.48 22.74 62.59 22.25 63.51 21 M 57.73 24.15 C 59.23 23.54 60.59 22.92 63.51 21 M 55.63 61.98 M 55.63 61.98 C 54.88 61.55 53.79 60.69 53.52 60.4 M 55.63 61.98 C 55.01 61.4 54.37 61.18 53.52 60.4 M 53.52 60.4 C 42.17 62.07 29.15 61.79 14.66 60.4 M 53.52 60.4 C 43.97 59.68 36.16 61.35 14.66 60.4 M 14.66 60.4 C 15.43 60.77 15.71 61.24 16.76 61.98 M 14.66 60.4 C 15.09 60.87 15.81 61.15 16.76 61.98 M 16.76 61.98 C 23.98 62.65 34.36 60.61 55.63 61.98 M 16.76 61.98 C 26.6 61.4 37.32 61.03 55.63 61.98 M 56.15 61.98 M 56.15 61.98 C 55.83 61.33 54.85 61.03 53.52 59.88 M 56.15 61.98 C 55.47 61.49 54.84 61.03 53.52 59.88 M 53.52 59.88 C 56.77 57.99 60.2 55.39 63.51 54.63 M 53.52 59.88 C 56.95 57.43 61.51 55.59 63.51 54.63 M 63.51 54.63 C 60.82 55.94 59.26 57.78 57.21 60.94 M 63.51 54.63 C 61.29 56.8 58.63 59.62 57.21 60.94 M 57.21 60.94 C 56.97 61.16 56.66 61.53 56.15 61.98 M 57.21 60.94 C 56.84 61.3 56.63 61.54 56.15 61.98" fill="none" stroke="#ffffff" stroke-width="2" stroke-linejoin="round" stroke-linecap="round" stroke-miterlimit="10" pointer-events="none"/><path d="M 57.64 24.25 C 57.64 24.25 57.64 24.25 57.64 24.25 M 57.64 24.25 C 57.64 24.25 57.64 24.25 57.64 24.25 M 57.78 36.29 C 60.12 35.05 62.33 32.25 67.62 24.97 M 57.78 36.29 C 62.14 31.91 65.06 27.6 67.62 24.97 M 57.91 48.33 C 61.11 46.36 64.01 41.23 67.75 37.01 M 57.91 48.33 C 60.69 45.1 64.45 41.46 67.75 37.01 M 58.04 60.37 C 60.6 56.12 66.73 50.48 67.88 49.05 M 58.04 60.37 C 60.84 57.58 63.14 53.82 67.88 49.05" fill="none" stroke="#036897" stroke-linejoin="round" stroke-linecap="round" stroke-miterlimit="10" pointer-events="none"/><path d="M 57.73 24.15 M 57.73 24.15 C 58.19 39.48 56.21 52.22 57.73 59.88 M 57.73 24.15 C 57.07 33.44 58.68 41.98 57.73 59.88 M 57.73 59.88 C 60.56 57.43 61.92 55.43 63.51 54.63 M 57.73 59.88 C 59.14 58.85 60.48 56.75 63.51 54.63 M 63.51 54.63 C 63.89 42.4 64.98 34.11 63.51 21 M 63.51 54.63 C 62.9 46.8 64.34 38.46 63.51 21 M 63.51 21 C 61.53 22.07 59.66 23.4 57.73 24.15 M 63.51 21 C 61.87 22.02 60.48 22.78 57.73 24.15 M 57.73 24.15 C 57.73 24.15 57.73 24.15 57.73 24.15 M 57.73 24.15 C 57.73 24.15 57.73 24.15 57.73 24.15" fill="none" stroke="#ffffff" stroke-width="2" stroke-linejoin="round" stroke-linecap="round" stroke-miterlimit="10" pointer-events="none"/><path d="M 10.08 23.98 C 10.08 23.98 10.08 23.98 10.08 23.98 M 10.08 23.98 C 10.08 23.98 10.08 23.98 10.08 23.98 M 10.22 36.02 C 12.72 34.7 15.07 31.71 20.71 23.95 M 10.22 36.02 C 14.87 31.35 17.99 26.76 20.71 23.95 M 9.69 48.82 C 16.32 43.46 22.6 33.84 31.34 23.91 M 9.69 48.82 C 16.06 41.5 23.76 33.57 31.34 23.91 M 9.83 60.86 C 20.65 46.59 36.35 30.4 41.97 23.88 M 9.83 60.86 C 18.71 51.19 26.98 40.2 41.97 23.88 M 20.46 60.83 C 33.65 48.68 43.88 33.82 52.6 23.85 M 20.46 60.83 C 27.41 53 36.67 44.23 52.6 23.85 M 31.09 60.79 C 43.83 47.11 52.6 34.61 60.61 26.83 M 31.09 60.79 C 38.62 52.79 45.96 41.96 60.61 26.83 M 41.72 60.76 C 47.99 52.29 55.08 47.7 60.74 38.87 M 41.72 60.76 C 45.61 55.6 51.51 50.01 60.74 38.87 M 52.35 60.72 C 54.32 58.11 56.59 55.96 60.88 50.91 M 52.35 60.72 C 54.83 58.17 57.65 55.19 60.88 50.91" fill="none" stroke="#036897" stroke-linejoin="round" stroke-linecap="round" stroke-miterlimit="10" pointer-events="none"/><path d="M 59.94 71.3 C 59.94 71.3 59.94 71.3 59.94 71.3 M 59.94 71.3 C 59.94 71.3 59.94 71.3 59.94 71.3" fill="none" stroke="#036897" stroke-linejoin="round" stroke-linecap="round" stroke-miterlimit="10" pointer-events="none"/><path d="M 1.08 79.76 C 1.08 79.76 1.08 79.76 1.08 79.76 M 1.08 79.76 C 1.08 79.76 1.08 79.76 1.08 79.76 M 5.81 86.52 C 7.74 84.49 10.33 80.97 11.71 79.72 M 5.81 86.52 C 8.36 83.98 10.27 81.59 11.71 79.72 M 15.78 87.24 C 18.27 85.72 18.65 83.6 22.34 79.69 M 15.78 87.24 C 16.79 85.61 18.67 83.87 22.34 79.69 M 26.41 87.2 C 28.73 85.29 30.38 82.86 32.97 79.65 M 26.41 87.2 C 27.9 85.82 29.27 83.84 32.97 79.65 M 37.04 87.17 C 40.14 84.41 41.43 81.67 43.6 79.62 M 37.04 87.17 C 39.23 85.04 41.28 82.06 43.6 79.62 M 47.67 87.13 C 50.35 83.81 52.22 82.2 54.23 79.59 M 47.67 87.13 C 48.83 85.16 50.92 83.71 54.23 79.59" fill="none" stroke="#036897" stroke-linejoin="round" stroke-linecap="round" stroke-miterlimit="10" pointer-events="none"/><path d="M 64.33 73.79 C 64.33 73.79 64.33 73.79 64.33 73.79 M 64.33 73.79 C 64.33 73.79 64.33 73.79 64.33 73.79" fill="none" stroke="#036897" stroke-linejoin="round" stroke-linecap="round" stroke-miterlimit="10" pointer-events="none"/><path d="M 61.03 80.2 C 61.03 80.2 61.03 80.2 61.03 80.2 M 61.03 80.2 C 61.03 80.2 61.03 80.2 61.03 80.2" fill="none" stroke="#036897" stroke-linejoin="round" stroke-linecap="round" stroke-miterlimit="10" pointer-events="none"/><path d="M 72.76 73.16 C 72.76 73.16 72.76 73.16 72.76 73.16 M 72.76 73.16 C 72.76 73.16 72.76 73.16 72.76 73.16" fill="none" stroke="#036897" stroke-linejoin="round" stroke-linecap="round" stroke-miterlimit="10" pointer-events="none"/><path d="M 7.06 71.71 C 7.06 71.71 7.06 71.71 7.06 71.71 M 7.06 71.71 C 7.06 71.71 7.06 71.71 7.06 71.71 M 6.54 84.5 C 11.25 80.78 13.73 74.23 17.69 71.67 M 6.54 84.5 C 9.78 80.05 12.88 77.86 17.69 71.67 M 17.17 84.47 C 20.9 81.68 23.1 77.59 28.32 71.64 M 17.17 84.47 C 18.78 81 21.96 79.57 28.32 71.64 M 27.8 84.43 C 32.1 79.74 33.15 75.75 38.95 71.6 M 27.8 84.43 C 30.14 81.72 34.22 77.74 38.95 71.6 M 38.43 84.4 C 40.13 82.37 44.42 77.98 49.58 71.57 M 38.43 84.4 C 41.1 80.75 44.51 77.1 49.58 71.57 M 49.06 84.36 C 53.05 80.78 53.64 78.76 60.21 71.53 M 49.06 84.36 C 51.32 81.44 53.85 78.62 60.21 71.53" fill="none" stroke="#036897" stroke-linejoin="round" stroke-linecap="round" stroke-miterlimit="10" pointer-events="none"/><path d="M 57.73 60.4 M 57.73 60.4 C 57.48 47.9 57.46 34.01 57.73 24.15 M 57.73 60.4 C 57.04 45.62 58.29 31.98 57.73 24.15 M 57.73 24.15 C 41.56 23.05 28.06 22.96 9.94 24.15 M 57.73 24.15 C 39.67 23.63 20.72 24.49 9.94 24.15 M 9.94 24.15 C 11.22 34.19 11.64 46.31 9.94 60.4 M 9.94 24.15 C 9.25 35.39 10.72 45.18 9.94 60.4 M 9.94 60.4 C 25.65 59.05 45.34 58.92 57.73 60.4 M 9.94 60.4 C 28.36 59.68 45.54 59.86 57.73 60.4 M 54.06 83 M 54.06 83 C 54.3 81.54 54.22 80.24 54.06 79.85 M 54.06 83 C 53.96 82.19 54.03 81.26 54.06 79.85 M 54.06 79.85 C 56.44 77.17 57.21 75.69 59.83 71.43 M 54.06 79.85 C 55.37 77.5 57.32 74.34 59.83 71.43 M 59.83 71.43 C 60.07 73.26 60.11 75.37 59.83 76.7 M 59.83 71.43 C 59.98 72.76 59.95 73.55 59.83 76.7 M 59.83 76.7 C 57.64 77.99 55.43 80.76 54.06 83 M 59.83 76.7 C 57.33 79.06 55.49 82.05 54.06 83 M 54.06 79.85 M 54.06 79.85 C 53.77 80.79 53.79 81.36 54.06 83 M 54.06 79.85 C 53.96 80.71 53.95 81.94 54.06 83 M 54.06 83 C 37.8 84.56 18.75 83.83 1 83 M 54.06 83 C 38.84 82.73 22.5 83.36 1 83 M 1 83 C 0.76 81.75 0.82 80.88 1 79.85 M 1 83 C 0.95 81.91 0.87 80.77 1 79.85 M 1 79.85 C 15.17 80.73 27.93 78.29 54.06 79.85 M 1 79.85 C 22.16 79.75 42.56 80.28 54.06 79.85 M 68.76 80.37 M 68.76 80.37 C 70.35 78.46 70.02 76.95 72.43 73.54 M 68.76 80.37 C 69.61 78.2 70.36 76.81 72.43 73.54 M 72.43 73.54 C 70.35 74.19 69.26 72.97 64.55 73.54 M 72.43 73.54 C 70.32 73.29 67.7 73.89 64.55 73.54 M 64.55 73.54 C 62.6 75.89 61.38 77.77 60.88 80.37 M 64.55 73.54 C 62.98 75.97 61.54 78.78 60.88 80.37 M 60.88 80.37 C 63.7 80.83 65.74 80.32 68.76 80.37 M 60.88 80.37 C 63.61 80.39 65.72 80.31 68.76 80.37 M 60.88 80.37 M 60.88 80.37 C 63.45 79.9 65.73 80.97 68.76 80.37 M 60.88 80.37 C 62.87 80.26 64.93 80.66 68.76 80.37 M 68.76 80.37 C 68.93 81.47 68.9 82.68 68.76 83 M 68.76 80.37 C 68.85 80.78 68.87 81.45 68.76 83 M 68.76 83 C 67.27 82.72 64.4 82.32 60.88 83 M 68.76 83 C 67.23 82.84 65.4 83.12 60.88 83 M 60.88 83 C 61.1 82.56 60.76 82.02 60.88 80.37 M 60.88 83 C 60.95 82.34 60.77 81.68 60.88 80.37 M 68.76 83 M 68.76 83 C 68.96 82.07 68.61 81.11 68.76 80.37 M 68.76 83 C 68.73 82.34 68.76 81.89 68.76 80.37 M 68.76 80.37 C 70.71 78.4 72.09 75.83 72.43 73.54 M 68.76 80.37 C 69.43 78.84 70.33 77.6 72.43 73.54 M 72.43 73.54 C 72.94 74.73 72.26 76.45 72.43 78.27 M 72.43 73.54 C 72.24 75.39 72.33 76.56 72.43 78.27 M 72.43 78.27 C 71.54 80.01 69.75 82.04 68.76 83 M 72.43 78.27 C 71.25 79.34 70.56 80.52 68.76 83 M 54.06 79.85 M 54.06 79.85 C 35.17 78.95 14.04 81.08 1 79.85 M 54.06 79.85 C 35.46 81.18 15.33 79.32 1 79.85 M 1 79.85 C 2.2 76.44 5.03 75.25 7.3 71.43 M 1 79.85 C 3.03 77.49 4.52 74.7 7.3 71.43 M 7.3 71.43 C 28.84 70.73 44.86 71.67 59.83 71.43 M 7.3 71.43 C 21.42 70.5 35.6 71.04 59.83 71.43 M 59.83 71.43 C 57.63 75.04 56.61 76.06 54.06 79.85 M 59.83 71.43 C 57.75 74.09 55.92 76.26 54.06 79.85" fill="none" stroke="#ffffff" stroke-width="2" stroke-linejoin="round" stroke-linecap="round" stroke-miterlimit="10" pointer-events="none"/><path d="M 16.76 27.84 M 16.76 27.84 C 48.38 29.39 51.2 29.28 50.37 27.84 M 16.76 27.84 C 48.16 25.65 48.32 26.26 50.37 27.84 M 50.37 27.84 C 52.86 27.56 54.36 30.01 54.58 31.51 M 50.37 27.84 C 51.87 30.07 53.33 28.11 54.58 31.51 M 54.58 31.51 C 53.77 52.88 56.58 52.59 54.58 53.06 M 54.58 31.51 C 56.86 55.31 52.69 54.44 54.58 53.06 M 54.58 53.06 C 55.53 55.62 51.3 58.26 50.37 57.25 M 54.58 53.06 C 54.18 56.33 51.96 57.98 50.37 57.25 M 50.37 57.25 C 18.34 58.05 15.76 57.52 16.76 57.25 M 50.37 57.25 C 17.02 55.55 15.85 58.01 16.76 57.25 M 16.76 57.25 C 15.68 57.67 15 56.21 13.09 53.06 M 16.76 57.25 C 13.96 55.3 13.39 56.62 13.09 53.06 M 13.09 53.06 C 11.8 30.97 13.45 31.14 13.09 31.51 M 13.09 53.06 C 13.48 32.38 12.3 30.34 13.09 31.51 M 13.09 31.51 C 14.68 27.96 13.82 28.56 16.76 27.84 M 13.09 31.51 C 15.12 27.97 15.74 26.42 16.76 27.84 M 16.76 27.84 C 16.76 27.84 16.76 27.84 16.76 27.84 M 16.76 27.84 C 16.76 27.84 16.76 27.84 16.76 27.84" fill="none" stroke="#ffffff" stroke-width="2" stroke-linejoin="round" stroke-linecap="round" stroke-miterlimit="10" pointer-events="none"/><path d="M 268 52 M 268 52 C 294.06 54.81 319.2 51.65 393.7 51.52 M 268 52 C 308.83 50.65 348.91 52.05 393.7 51.52" fill="none" stroke="#f0f0f0" stroke-linejoin="round" stroke-linecap="round" stroke-miterlimit="10" pointer-events="none"/><path d="M 391.69 48.31 C 391.69 48.31 391.69 48.31 391.69 48.31 M 391.69 48.31 C 391.69 48.31 391.69 48.31 391.69 48.31 M 394.05 51.68 C 394.39 50.98 395.21 50.66 395.37 50.18 M 394.05 51.68 C 394.39 51.15 394.8 50.84 395.37 50.18" fill="none" stroke="#f0f0f0" stroke-linejoin="round" stroke-linecap="round" stroke-miterlimit="10" pointer-events="none"/><path d="M 398.95 51.5 M 398.95 51.5 C 395.95 51.94 393.68 54.43 391.96 55.03 M 398.95 51.5 C 397.21 52.83 394.88 53.59 391.96 55.03 M 391.96 55.03 C 392.66 53.8 393.5 52.87 393.7 51.52 M 391.96 55.03 C 392.59 54.05 393.11 53.16 393.7 51.52 M 393.7 51.52 C 393.12 50.73 392.87 49.39 391.93 48.03 M 393.7 51.52 C 393.44 50.63 393.01 49.75 391.93 48.03 M 391.93 48.03 C 394.01 48.88 395.52 50.79 398.95 51.5 M 391.93 48.03 C 394.39 49.41 396.46 50.36 398.95 51.5" fill="none" stroke="#f0f0f0" stroke-linejoin="round" stroke-linecap="round" stroke-miterlimit="10" pointer-events="none"/><path d="M 191.17 38.3 C 191.17 38.3 191.17 38.3 191.17 38.3 M 191.17 38.3 C 191.17 38.3 191.17 38.3 191.17 38.3 M 191.31 50.34 C 193.26 47.94 195.21 43.65 201.8 38.27 M 191.31 50.34 C 194.47 48.28 195.69 44.33 201.8 38.27 M 190.78 63.14 C 199.44 52.42 206.38 43.71 212.43 38.23 M 190.78 63.14 C 196.76 57.23 199.85 52.52 212.43 38.23 M 195.51 69.9 C 203.04 61.97 212.89 52.96 223.06 38.2 M 195.51 69.9 C 202.16 62.71 209.41 53.59 223.06 38.2 M 206.14 69.86 C 213.93 63.05 216.08 55.72 233.69 38.16 M 206.14 69.86 C 212.59 62.68 218.95 55.84 233.69 38.16 M 216.77 69.83 C 224.55 61.38 233.67 51.85 244.32 38.13 M 216.77 69.83 C 225.58 61.77 231.71 51.72 244.32 38.13 M 227.4 69.79 C 237.99 58.13 243.77 50.9 254.3 38.85 M 227.4 69.79 C 237.06 59.52 246.21 47.76 254.3 38.85 M 238.03 69.76 C 249.74 57.3 256.87 45.94 264.93 38.81 M 238.03 69.76 C 243.17 62.59 250.54 55.8 264.93 38.81 M 248.66 69.72 C 258.94 59.93 266.78 50.41 272.28 42.55 M 248.66 69.72 C 255.87 62.02 261.59 53.83 272.28 42.55 M 259.29 69.69 C 263.41 66.95 265.34 63.68 272.41 54.59 M 259.29 69.69 C 264.11 65.38 268.63 58.36 272.41 54.59" fill="none" stroke="" stroke-linejoin="round" stroke-linecap="round" stroke-miterlimit="10" pointer-events="none"/><path d="M 190.93 50.01 C 190.93 50.01 190.93 50.01 190.93 50.01 M 190.93 50.01 C 190.93 50.01 190.93 50.01 190.93 50.01 M 191.06 62.05 C 193.48 58.9 195.29 54.42 201.56 49.98 M 191.06 62.05 C 194.82 57.64 198.39 53.18 201.56 49.98 M 195.13 69.57 C 199.24 63.54 201.55 61.66 212.19 49.94 M 195.13 69.57 C 202.14 63.17 208.12 54.98 212.19 49.94 M 205.76 69.53 C 212.35 63.19 217.59 56.85 222.82 49.91 M 205.76 69.53 C 210.58 65.42 214.06 59.96 222.82 49.91 M 216.39 69.5 C 219.11 64.12 226.31 60.04 233.45 49.87 M 216.39 69.5 C 222.33 63.32 227.77 55.64 233.45 49.87 M 227.02 69.46 C 230.4 65.34 233.8 58.85 244.08 49.84 M 227.02 69.46 C 231.91 65.85 234.32 59.88 244.08 49.84 M 237.65 69.43 C 244.48 60.73 249.64 54.07 254.71 49.81 M 237.65 69.43 C 242.56 64.74 244.62 61.22 254.71 49.81 M 248.28 69.39 C 251.32 66.59 256.59 62.72 260.75 55.05 M 248.28 69.39 C 251.11 66.53 254.59 61.78 260.75 55.05" fill="none" stroke="#036897" stroke-linejoin="round" stroke-linecap="round" stroke-miterlimit="10" pointer-events="none"/><path d="M 190.93 50.01 C 190.93 50.01 190.93 50.01 190.93 50.01 M 190.93 50.01 C 190.93 50.01 190.93 50.01 190.93 50.01 M 201.56 49.98 C 203.62 47.85 206.48 45.14 209.43 40.92 M 201.56 49.98 C 204.39 47.81 205.71 44.5 209.43 40.92 M 212.19 49.94 C 215.84 46.13 216.56 44.96 220.06 40.89 M 212.19 49.94 C 215.1 47.1 217.68 43.39 220.06 40.89 M 222.82 49.91 C 226.7 46.11 227.74 43.01 230.69 40.85 M 222.82 49.91 C 224.06 47.66 226.65 45.69 230.69 40.85 M 233.45 49.87 C 237.37 46.57 239.81 43.46 241.32 40.82 M 233.45 49.87 C 236.01 47.24 237.7 44.33 241.32 40.82 M 244.08 49.84 C 246.55 48.2 247.71 46.24 251.95 40.78 M 244.08 49.84 C 246.97 47.25 249.68 43.04 251.95 40.78 M 254.71 49.81 C 257.8 46.87 260.88 44.77 262.58 40.75 M 254.71 49.81 C 256.85 47.12 259.38 44.12 262.58 40.75 M 260.75 55.05 C 265.78 51.72 269.92 44.93 271.9 42.22 M 260.75 55.05 C 262.48 53.18 265.45 49.48 271.9 42.22" fill="none" stroke="#036897" stroke-linejoin="round" stroke-linecap="round" stroke-miterlimit="10" pointer-events="none"/><path d="M 254.73 49.83 C 254.73 49.83 254.73 49.83 254.73 49.83 M 254.73 49.83 C 254.73 49.83 254.73 49.83 254.73 49.83" fill="none" stroke="#036897" stroke-linejoin="round" stroke-linecap="round" stroke-miterlimit="10" pointer-events="none"/><path d="M 191 65.5 M 191 65.5 C 189.89 59.31 191.29 56.4 191 49.93 M 191 65.5 C 191.82 61.09 190.92 55.28 191 49.93 M 191 49.93 C 218.08 49.99 241.51 50.57 254.64 49.93 M 191 49.93 C 205.75 49.2 218.53 50.43 254.64 49.93 M 254.64 49.93 C 255.64 55.83 255.65 59.51 254.64 65.5 M 254.64 49.93 C 254.63 54.7 255.08 60.38 254.64 65.5 M 254.64 65.5 C 236.92 64.46 221.2 65.86 191 65.5 M 254.64 65.5 C 237.49 65.06 220.88 66.29 191 65.5 M 191 65.5 C 191 65.5 191 65.5 191 65.5 M 191 65.5 C 191 65.5 191 65.5 191 65.5 M 254.64 65.5 M 254.64 65.5 C 255.95 61.75 253.22 57.72 254.64 49.93 M 254.64 65.5 C 255.11 62 254.01 59.35 254.64 49.93 M 254.64 49.93 C 240.53 51.46 224.83 48.49 191 49.93 M 254.64 49.93 C 233.67 49.61 213.93 49.64 191 49.93 M 191 49.93 C 197.74 46.54 204.32 40.71 207.04 38.5 M 191 49.93 C 196.61 45.9 200.01 44.17 207.04 38.5 M 207.04 38.5 C 221 37.93 235.31 37.99 263.72 38.5 M 207.04 38.5 C 220.1 38.86 234.64 39.25 263.72 38.5 M 263.72 38.5 C 264.89 38.12 266.08 38.42 268 38.5 M 263.72 38.5 C 265.22 38.37 266.81 38.39 268 38.5 M 268 38.5 C 267.04 42.16 266.86 42.43 268 51.49 M 268 38.5 C 267.78 41.41 267.87 44.58 268 51.49 M 268 51.49 C 265.12 56.23 262.21 58.18 254.64 65.5 M 268 51.49 C 264.78 56.51 260.52 60.43 254.64 65.5 M 254.64 65.5 C 254.64 65.5 254.64 65.5 254.64 65.5 M 254.64 65.5 C 254.64 65.5 254.64 65.5 254.64 65.5 M 254.64 49.93 M 254.64 49.93 C 257.24 48.39 260.58 44.99 267.47 38.5 M 254.64 49.93 C 258.19 47.05 260.57 45.18 267.47 38.5" fill="none" stroke="#ffffff" stroke-width="2" stroke-linejoin="round" stroke-linecap="round" stroke-miterlimit="10" pointer-events="none"/><path d="M 191 38.5 C 191 38.5 191 38.5 191 38.5 M 191 38.5 C 191 38.5 191 38.5 191 38.5 M 191 38.5 C 191 38.5 191 38.5 191 38.5 M 191 38.5 C 191 38.5 191 38.5 191 38.5 M 191 38.5 C 191 38.5 191 38.5 191 38.5 M 191 38.5 C 191 38.5 191 38.5 191 38.5 M 191 38.5 C 191 38.5 191 38.5 191 38.5 M 191 38.5 C 191 38.5 191 38.5 191 38.5" fill="none" stroke="#ffffff" stroke-width="2" stroke-linejoin="round" stroke-linecap="round" stroke-miterlimit="10" pointer-events="none"/><path d="M 200.22 58.09 C 200.22 58.09 200.22 58.09 200.22 58.09 M 200.22 58.09 C 200.22 58.09 200.22 58.09 200.22 58.09" fill="none" stroke="#ffffff" stroke-linejoin="round" stroke-linecap="round" stroke-miterlimit="10" pointer-events="none"/><path d="M 209.94 58.59 C 209.94 58.59 209.94 58.59 209.94 58.59 M 209.94 58.59 C 209.94 58.59 209.94 58.59 209.94 58.59" fill="none" stroke="#ffffff" stroke-linejoin="round" stroke-linecap="round" stroke-miterlimit="10" pointer-events="none"/><path d="M 220.31 58.33 C 220.31 58.33 220.31 58.33 220.31 58.33 M 220.31 58.33 C 220.31 58.33 220.31 58.33 220.31 58.33" fill="none" stroke="#ffffff" stroke-linejoin="round" stroke-linecap="round" stroke-miterlimit="10" pointer-events="none"/><path d="M 230.7 58.08 C 230.7 58.08 230.7 58.08 230.7 58.08 M 230.7 58.08 C 230.7 58.08 230.7 58.08 230.7 58.08" fill="none" stroke="#ffffff" stroke-linejoin="round" stroke-linecap="round" stroke-miterlimit="10" pointer-events="none"/><path d="M 240.42 58.59 C 240.42 58.59 240.42 58.59 240.42 58.59 M 240.42 58.59 C 240.42 58.59 240.42 58.59 240.42 58.59" fill="none" stroke="#ffffff" stroke-linejoin="round" stroke-linecap="round" stroke-miterlimit="10" pointer-events="none"/><path d="M 202.23 60.3 M 202.23 60.3 C 202.22 61.68 205.03 58.59 204.36 58.23 M 202.23 60.3 C 204.17 58.61 203.33 57.63 204.36 58.23 M 204.36 58.23 C 203.26 56.9 205.04 57.87 202.23 56.16 M 204.36 58.23 C 202.95 55.76 205.33 54.23 202.23 56.16 M 202.23 56.16 C 199.43 56.2 198.87 55.76 200.1 58.23 M 202.23 56.16 C 200.85 54.44 198.72 58.56 200.1 58.23 M 200.1 58.23 C 202 58.93 199.48 61.77 202.23 60.3 M 200.1 58.23 C 200.05 58.79 201.47 59.44 202.23 60.3 M 202.23 60.3 C 202.23 60.3 202.23 60.3 202.23 60.3 M 202.23 60.3 C 202.23 60.3 202.23 60.3 202.23 60.3 M 212.38 60.3 M 212.38 60.3 C 213.28 58.45 213.84 57.67 214.53 58.23 M 212.38 60.3 C 212.16 61.35 215.01 59.09 214.53 58.23 M 214.53 58.23 C 215.55 57.29 213.51 56.44 212.38 56.16 M 214.53 58.23 C 212.51 56.61 214.5 56.48 212.38 56.16 M 212.38 56.16 C 212.27 55.61 208.36 56.17 210.25 58.23 M 212.38 56.16 C 213.62 57.17 209.39 54.97 210.25 58.23 M 210.25 58.23 C 210.92 60.53 211.65 62.11 212.38 60.3 M 210.25 58.23 C 208.75 57.7 213.37 61.48 212.38 60.3 M 212.38 60.3 C 212.38 60.3 212.38 60.3 212.38 60.3 M 212.38 60.3 C 212.38 60.3 212.38 60.3 212.38 60.3 M 222.55 60.3 M 222.55 60.3 C 223.3 58.91 222.95 58.27 224.69 58.23 M 222.55 60.3 C 224.85 59.31 226.07 59.96 224.69 58.23 M 224.69 58.23 C 223.4 59.05 223.45 57.36 222.55 56.16 M 224.69 58.23 C 224.8 56.66 222.92 55.4 222.55 56.16 M 222.55 56.16 C 222.67 55.64 219.96 55.32 220.4 58.23 M 222.55 56.16 C 219.61 55.68 218.57 58.59 220.4 58.23 M 220.4 58.23 C 220.86 59.56 221.97 61.14 222.55 60.3 M 220.4 58.23 C 221.22 59.95 222.38 62.35 222.55 60.3 M 222.55 60.3 C 222.55 60.3 222.55 60.3 222.55 60.3 M 222.55 60.3 C 222.55 60.3 222.55 60.3 222.55 60.3 M 232.71 60.3 M 232.71 60.3 C 234.71 58.51 236.04 60.1 234.84 58.23 M 232.71 60.3 C 231.77 61.76 236.44 60.89 234.84 58.23 M 234.84 58.23 C 233.68 55.37 234.6 54.56 232.71 56.16 M 234.84 58.23 C 233.38 59.12 234.05 55.35 232.71 56.16 M 232.71 56.16 C 232.03 57.22 231.4 55.36 230.57 58.23 M 232.71 56.16 C 232.52 54.04 230.85 56.8 230.57 58.23 M 230.57 58.23 C 229.76 58.66 232.18 59.26 232.71 60.3 M 230.57 58.23 C 232.23 58.98 231.92 62.39 232.71 60.3 M 232.71 60.3 C 232.71 60.3 232.71 60.3 232.71 60.3 M 232.71 60.3 C 232.71 60.3 232.71 60.3 232.71 60.3 M 242.86 60.3 M 242.86 60.3 C 242.48 62 244.6 59.01 245.01 58.23 M 242.86 60.3 C 244.14 58.47 243.83 60.15 245.01 58.23 M 245.01 58.23 C 246.46 56.22 242.92 57.64 242.86 56.16 M 245.01 58.23 C 244.94 56.35 244.96 57.73 242.86 56.16 M 242.86 56.16 C 243.44 57.53 241.16 57.65 240.73 58.23 M 242.86 56.16 C 242.96 54.05 240.48 56.45 240.73 58.23 M 240.73 58.23 C 241.66 60.3 241.34 59.52 242.86 60.3 M 240.73 58.23 C 241.55 59.15 240.34 62.36 242.86 60.3 M 242.86 60.3 C 242.86 60.3 242.86 60.3 242.86 60.3 M 242.86 60.3 C 242.86 60.3 242.86 60.3 242.86 60.3" fill="none" stroke="#ffffff" stroke-width="2" stroke-linejoin="round" stroke-linecap="round" stroke-miterlimit="10" pointer-events="none"/><path d="M 390.84 1.19 C 390.84 1.19 390.84 1.19 390.84 1.19 M 390.84 1.19 C 390.84 1.19 390.84 1.19 390.84 1.19 M 390.97 13.23 C 391.97 11.41 395.32 8.43 401.47 1.15 M 390.97 13.23 C 394.08 9.55 398.24 4.62 401.47 1.15 M 391.1 25.27 C 398.27 16.76 406.72 10.94 412.1 1.12 M 391.1 25.27 C 395.39 19.48 399.51 16.1 412.1 1.12 M 391.24 37.31 C 399.81 26.65 410.9 14.83 422.73 1.08 M 391.24 37.31 C 404.2 22.92 416.23 9.9 422.73 1.08 M 390.71 50.11 C 404.27 34.33 415.58 20.25 431.39 3.31 M 390.71 50.11 C 399.62 38.22 409.15 28.64 431.39 3.31 M 390.85 62.15 C 404.08 45.37 419.72 30.25 430.87 16.11 M 390.85 62.15 C 403.17 47.01 417.09 31.58 430.87 16.11 M 390.98 74.19 C 402.01 57.65 418.76 45.5 431 28.15 M 390.98 74.19 C 406.06 58.18 420.15 41.1 431 28.15 M 391.11 86.23 C 403.64 73.15 414.26 58.77 431.13 40.19 M 391.11 86.23 C 398.33 76.45 407.35 67.16 431.13 40.19 M 391.25 98.27 C 402.04 88.82 411.63 74.41 431.27 52.23 M 391.25 98.27 C 400.01 88.71 410.27 78.27 431.27 52.23 M 395.32 105.78 C 408.41 92.76 422.69 74.21 431.4 64.27 M 395.32 105.78 C 403.12 96.94 410.64 89.29 431.4 64.27 M 405.95 105.75 C 415.51 94.87 423.94 85.59 430.88 77.07 M 405.95 105.75 C 412.21 100.36 416.32 93.33 430.88 77.07 M 416.58 105.71 C 421.25 99.79 426.72 94.17 431.01 89.11 M 416.58 105.71 C 420.42 102.62 423.42 98.13 431.01 89.11" fill="none" stroke="" stroke-linejoin="round" stroke-linecap="round" stroke-miterlimit="10" pointer-events="none"/><path d="M 400.24 6.71 C 400.24 6.71 400.24 6.71 400.24 6.71 M 400.24 6.71 C 400.24 6.71 400.24 6.71 400.24 6.71 M 399.8 16.93 C 399.8 16.93 399.8 16.93 399.8 16.93 M 399.8 16.93 C 399.8 16.93 399.8 16.93 399.8 16.93 M 400.03 26.4 C 400.03 26.4 400.03 26.4 400.03 26.4 M 400.03 26.4 C 400.03 26.4 400.03 26.4 400.03 26.4 M 400.25 35.87 C 400.25 35.87 400.25 35.87 400.25 35.87 M 400.25 35.87 C 400.25 35.87 400.25 35.87 400.25 35.87 M 399.81 46.09 C 399.81 46.09 399.81 46.09 399.81 46.09 M 399.81 46.09 C 399.81 46.09 399.81 46.09 399.81 46.09" fill="none" stroke="#036897" stroke-linejoin="round" stroke-linecap="round" stroke-miterlimit="10" pointer-events="none"/><path d="M 413.78 6.55 C 413.78 6.55 413.78 6.55 413.78 6.55 M 413.78 6.55 C 413.78 6.55 413.78 6.55 413.78 6.55 M 413.34 16.78 C 413.34 16.78 413.34 16.78 413.34 16.78 M 413.34 16.78 C 413.34 16.78 413.34 16.78 413.34 16.78 M 413.56 26.24 C 413.56 26.24 413.56 26.24 413.56 26.24 M 413.56 26.24 C 413.56 26.24 413.56 26.24 413.56 26.24 M 413.78 35.71 C 413.78 35.71 413.78 35.71 413.78 35.71 M 413.78 35.71 C 413.78 35.71 413.78 35.71 413.78 35.71 M 413.35 45.93 C 413.35 45.93 413.35 45.93 413.35 45.93 M 413.35 45.93 C 413.35 45.93 413.35 45.93 413.35 45.93" fill="none" stroke="#036897" stroke-linejoin="round" stroke-linecap="round" stroke-miterlimit="10" pointer-events="none"/><path d="M 400.12 54.69 M 400.12 54.69 C 398.27 37.9 402.13 25.17 400.12 6.85 M 400.12 54.69 C 400.8 37.96 400.5 20.23 400.12 6.85 M 413.52 54.69 M 413.52 54.69 C 413.91 41.46 412.38 26.54 413.52 6.85 M 413.52 54.69 C 412.42 44.61 413.13 34.95 413.52 6.85" fill="none" stroke="#ffffff" stroke-width="1.59" stroke-linejoin="round" stroke-linecap="round" stroke-miterlimit="10" pointer-events="none"/><path d="M 391 102 M 391 102 C 391.18 91.38 394.14 82.53 400.12 54.16 M 391 102 C 392.58 91.13 395.18 77.62 400.12 54.16 M 400.12 54.16 C 403.96 54.52 408.86 54.5 413.52 54.16 M 400.12 54.16 C 404.56 53.82 408.47 53.56 413.52 54.16 M 413.52 54.16 C 415.38 72.69 420.43 88.16 421.57 102 M 413.52 54.16 C 414.76 66.23 416.64 76.08 421.57 102 M 391 102 M 391 102 C 398.86 99.14 401.5 96.01 418.89 88.18 M 391 102 C 400.08 97.52 409.21 93.63 418.89 88.18 M 418.89 88.18 C 415.97 84.7 407.74 82.52 396.37 75.42 M 418.89 88.18 C 411.26 83.97 403.52 80.46 396.37 75.42 M 396.37 75.42 C 398.84 73.84 404.26 70.86 415.13 63.73 M 396.37 75.42 C 402.28 72.01 409.5 67.06 415.13 63.73 M 415.13 63.73 C 410.16 60.34 406.39 59.29 400.12 54.69 M 415.13 63.73 C 411.95 61.43 408.67 60.98 400.12 54.69 M 400.12 54.69 C 403.41 49.72 409.15 43.74 413.52 38.22 M 400.12 54.69 C 406.13 47.96 411.19 42.56 413.52 38.22 M 413.52 38.22 C 409.7 34.21 403.82 31.82 400.12 28.11 M 413.52 38.22 C 409.81 34.92 406.41 33.87 400.12 28.11 M 400.12 28.11 C 403.8 23.9 409.65 21.08 413.52 16.42 M 400.12 28.11 C 403.91 24.13 409.11 19.86 413.52 16.42 M 413.52 16.42 C 407.62 12.5 406.42 11.75 400.12 7.38 M 413.52 16.42 C 409.34 13.53 404.27 9.86 400.12 7.38 M 421.57 102 M 421.57 102 C 413.65 99.37 403.66 94.76 393.69 88.18 M 421.57 102 C 414.92 99.04 409.84 96.44 393.69 88.18 M 393.69 88.18 C 400.13 86.91 405.53 80.71 416.74 75.42 M 393.69 88.18 C 398.4 85.85 404.93 82.73 416.74 75.42 M 416.74 75.42 C 410.22 73.05 404.65 65.39 398.51 63.73 M 416.74 75.42 C 413.31 72.64 409.48 71.22 398.51 63.73 M 398.51 63.73 C 404.29 60.36 409.06 58.38 413.52 54.69 M 398.51 63.73 C 402.5 62.38 404.69 59.54 413.52 54.69 M 413.52 54.69 C 408.13 48.84 403.53 43.27 400.65 38.22 M 413.52 54.69 C 411.12 51.42 407.88 46.97 400.65 38.22 M 400.65 38.22 C 403.91 34.61 410.96 29.68 413.52 28.11 M 400.65 38.22 C 403.89 36.67 407.03 34.01 413.52 28.11 M 413.52 28.11 C 411.2 25.84 406.12 21.5 400.12 16.42 M 413.52 28.11 C 409.05 25.59 405.72 20.96 400.12 16.42 M 400.12 16.42 C 403.14 14.3 406.76 13.31 413.52 7.38 M 400.12 16.42 C 404.97 12.86 410.43 10.13 413.52 7.38 M 412.99 6.85 M 412.99 6.85 C 408.38 5.7 404.64 5.77 400.65 6.85 M 412.99 6.85 C 408.1 7.23 403.42 6.53 400.65 6.85 M 400.65 6.85 C 401.04 6.02 401.9 3.59 403.87 1 M 400.65 6.85 C 402.02 5.09 402.81 2.49 403.87 1 M 403.87 1 C 405.94 0.61 407.93 0.46 409.77 1 M 403.87 1 C 406.24 1.27 408.06 1.07 409.77 1 M 409.77 1 C 410.16 2.66 411.16 3.14 412.99 6.85 M 409.77 1 C 411.11 2.83 411.67 4.51 412.99 6.85 M 412.99 6.85 C 412.99 6.85 412.99 6.85 412.99 6.85 M 412.99 6.85 C 412.99 6.85 412.99 6.85 412.99 6.85" fill="none" stroke="#ffffff" stroke-width="1.59" stroke-linejoin="round" stroke-linecap="round" stroke-miterlimit="10" pointer-events="none"/><path d="M 418.94 8.39 C 418.94 8.39 418.94 8.39 418.94 8.39 M 418.94 8.39 C 418.94 8.39 418.94 8.39 418.94 8.39 M 419.16 17.86 C 419.5 17.38 419.99 16.85 420.47 16.35 M 419.16 17.86 C 419.61 17.32 419.97 16.8 420.47 16.35 M 420.47 16.35 C 420.83 15.89 421.52 15.13 421.79 14.84 M 420.47 16.35 C 420.72 16.07 421.02 15.57 421.79 14.84" fill="none" stroke="#036897" stroke-linejoin="round" stroke-linecap="round" stroke-miterlimit="10" pointer-events="none"/><path d="M 418.89 8.45 M 418.89 8.45 C 418.32 8.03 420.29 8.72 419.96 6.85 M 418.89 8.45 C 420.18 5.05 420.04 7.49 419.96 6.85 M 419.96 6.85 C 422.29 7.43 420.63 7.11 420.5 6.85 M 419.96 6.85 C 420.62 8.61 418.4 8.26 420.5 6.85 M 420.5 6.85 C 420 15.61 419.74 12.08 420.5 13.76 M 420.5 6.85 C 420.17 14.58 420.21 14.94 420.5 13.76 M 420.5 13.76 C 425.17 13.68 424.81 15.23 425.33 13.76 M 420.5 13.76 C 423.44 13.65 427.19 11.9 425.33 13.76 M 425.33 13.76 C 426.98 14.01 426.55 15.43 425.86 14.3 M 425.33 13.76 C 427.42 15.47 424.27 16.26 425.86 14.3 M 425.86 14.3 C 426.06 14.44 427.08 13.02 426.39 14.3 M 425.86 14.3 C 426.44 14.29 425.9 15.93 426.39 14.3 M 426.39 14.3 C 428.77 11.89 426.25 15.42 426.94 13.76 M 426.39 14.3 C 426.65 12.3 426.15 16 426.94 13.76 M 426.94 13.76 C 427.38 13.83 426.38 14.2 428 14.82 M 426.94 13.76 C 427.23 14.57 426.47 16.79 428 14.82 M 428 14.82 C 428.25 15.82 429.73 14.65 428 15.35 M 428 14.82 C 429.74 16.74 428.54 16.66 428 15.35 M 428 15.35 C 427.17 16.03 426.65 15.26 426.94 16.42 M 428 15.35 C 428.26 13.97 429.23 14.86 426.94 16.42 M 426.94 16.42 C 425.4 13.48 424.95 16.77 426.39 15.35 M 426.94 16.42 C 427.85 15.17 427.18 13.8 426.39 15.35 M 426.39 15.35 C 425.95 15.1 427.57 15.81 425.86 15.35 M 426.39 15.35 C 425.82 15.66 424.45 14.87 425.86 15.35 M 425.86 15.35 C 426.07 14.36 425.77 15.28 425.33 15.89 M 425.86 15.35 C 427.23 13.6 423.74 18.04 425.33 15.89 M 425.33 15.89 C 421.79 17.08 421.09 15.52 420.5 15.89 M 425.33 15.89 C 422.39 17 421.69 15.79 420.5 15.89 M 420.5 15.89 C 420.57 24.18 422.49 23.91 420.5 23.32 M 420.5 15.89 C 421.97 22.24 421.5 21.19 420.5 23.32 M 420.5 23.32 C 421.35 23.7 418.42 23.03 419.96 23.32 M 420.5 23.32 C 419.83 23.59 418.74 22.17 419.96 23.32 M 419.96 23.32 C 418.49 22.42 420.72 22.13 418.89 21.73 M 419.96 23.32 C 417.49 19.89 416.67 20.45 418.89 21.73 M 418.89 21.73 C 418.9 19.26 419.83 14.46 418.89 8.45 M 418.89 21.73 C 418.29 16.99 419.02 13.26 418.89 8.45" fill="none" stroke="#ffffff" stroke-width="1.59" stroke-linejoin="round" stroke-linecap="round" stroke-miterlimit="10" pointer-events="none"/><path d="M 416.1 8.58 C 416.1 8.58 416.1 8.58 416.1 8.58 M 416.1 8.58 C 416.1 8.58 416.1 8.58 416.1 8.58 M 416.32 18.04 C 417.86 15.89 420.07 13.5 422.23 11.25 M 416.32 18.04 C 418.33 15.63 419.95 13.25 422.23 11.25" fill="none" stroke="#036897" stroke-linejoin="round" stroke-linecap="round" stroke-miterlimit="10" pointer-events="none"/><path d="M 418.89 21.73 M 418.89 21.73 C 417.55 22.13 416.38 20.54 416.21 21.73 M 418.89 21.73 C 417.33 22.77 414.93 20.27 416.21 21.73 M 416.21 21.73 C 415.14 19.85 413.79 18.99 415.13 17.49 M 416.21 21.73 C 413.54 18.51 413.24 18.84 415.13 17.49 M 415.13 17.49 C 413.32 19.36 413.19 15.93 412.99 17.49 M 415.13 17.49 C 413.07 18.13 415.04 18.15 412.99 17.49 M 412.99 17.49 C 413.12 15.61 413.09 16.88 412.99 15.35 M 412.99 17.49 C 410.89 16.76 412.42 17.48 412.99 15.35 M 412.99 15.35 C 412.23 13.14 412.71 15.54 412.99 14.82 M 412.99 15.35 C 412.7 16 412.81 14.73 412.99 14.82 M 412.99 14.82 C 412.47 14.17 411.35 12.6 412.99 12.7 M 412.99 14.82 C 414.85 10.84 414.28 12.37 412.99 12.7 M 412.99 12.7 C 415.82 13.83 416.49 13.72 415.13 12.7 M 412.99 12.7 C 413.54 14.66 414.75 12.86 415.13 12.7 M 415.13 12.7 C 415.82 11.42 415.17 9.5 416.21 8.45 M 415.13 12.7 C 414.64 14.33 417.23 7.36 416.21 8.45 M 416.21 8.45 C 418.2 10.11 418.64 7.18 418.89 8.45 M 416.21 8.45 C 418.1 10.69 418.79 9.14 418.89 8.45 M 418.89 8.45 C 419.62 10.48 419.99 14.43 418.89 21.73 M 418.89 8.45 C 419.51 13.15 419.16 17.43 418.89 21.73" fill="none" stroke="#ffffff" stroke-width="1.59" stroke-linejoin="round" stroke-linecap="round" stroke-miterlimit="10" pointer-events="none"/><path d="M 418.58 30.6 C 418.58 30.6 418.58 30.6 418.58 30.6 M 418.58 30.6 C 418.58 30.6 418.58 30.6 418.58 30.6 M 418.8 40.07 C 419.48 39.11 420.46 38.05 421.42 37.05 M 418.8 40.07 C 419.69 38.99 420.41 37.94 421.42 37.05" fill="none" stroke="#036897" stroke-linejoin="round" stroke-linecap="round" stroke-miterlimit="10" pointer-events="none"/><path d="M 418.89 30.24 M 418.89 30.24 C 421.3 29.05 420.13 27.46 419.96 28.65 M 418.89 30.24 C 421.08 29.69 418.68 27.19 419.96 28.65 M 419.96 28.65 C 420.51 28.37 419.16 30.15 420.5 28.65 M 419.96 28.65 C 418.91 27.03 418.61 30 420.5 28.65 M 420.5 28.65 C 420.83 37.95 420.7 34.52 420.5 36.08 M 420.5 28.65 C 420.58 36.72 422.55 36.74 420.5 36.08 M 420.5 36.08 C 425.46 36.34 425.43 37.61 425.33 36.08 M 420.5 36.08 C 423.23 37.49 424.76 38.21 425.33 36.08 M 425.33 36.08 C 425.1 34.4 425.58 36.8 425.86 36.08 M 425.33 36.08 C 425.57 37.26 425.68 35.99 425.86 36.08 M 425.86 36.08 C 425.87 37.55 424.75 35.98 426.39 36.08 M 425.86 36.08 C 428.25 34.22 427.68 35.75 426.39 36.08 M 426.39 36.08 C 427.63 36.68 428.3 36.57 426.94 35.55 M 426.39 36.08 C 425.35 37.51 426.56 35.71 426.94 35.55 M 426.94 35.55 C 428.16 34.27 428.04 36.61 428 36.62 M 426.94 35.55 C 426.98 37.18 430.1 34.47 428 36.62 M 428 36.62 C 427.31 38.81 427.75 35.88 428 37.15 M 428 36.62 C 427.21 39.39 427.9 37.84 428 37.15 M 428 37.15 C 426.38 36.53 427.26 39.9 426.94 38.22 M 428 37.15 C 426.47 39.12 427.76 39.29 426.94 38.22 M 426.94 38.22 C 428.12 36.98 427.9 38.89 426.39 37.68 M 426.94 38.22 C 426.93 38.99 425.44 38.46 426.39 37.68 M 426.39 37.68 C 425.04 36.52 426.09 36.48 425.86 37.68 M 426.39 37.68 C 427.62 36.12 424.73 35.53 425.86 37.68 M 425.86 37.68 C 423.89 39.64 426.6 38.07 425.33 38.22 M 425.86 37.68 C 426.12 36.67 425.44 37.93 425.33 38.22 M 425.33 38.22 C 422.21 38.68 420.47 38.49 420.5 38.22 M 425.33 38.22 C 419.09 37.74 421.36 36.46 420.5 38.22 M 420.5 38.22 C 420.94 44.51 422.15 43.12 420.5 45.12 M 420.5 38.22 C 418.91 47.27 421.99 46.49 420.5 45.12 M 420.5 45.12 C 420.55 44.75 421.61 46.08 419.96 45.12 M 420.5 45.12 C 421.15 45.02 420.04 46.11 419.96 45.12 M 419.96 45.12 C 420.88 44.12 420.17 42.6 418.89 43.53 M 419.96 45.12 C 419.89 41.4 420.49 43.97 418.89 43.53 M 418.89 43.53 C 419.07 39.86 418.25 37.34 418.89 30.24 M 418.89 43.53 C 418.36 38.56 418.13 34.27 418.89 30.24" fill="none" stroke="#ffffff" stroke-width="1.59" stroke-linejoin="round" stroke-linecap="round" stroke-miterlimit="10" pointer-events="none"/><path d="M 416.39 30.03 C 416.39 30.03 416.39 30.03 416.39 30.03 M 416.39 30.03 C 416.39 30.03 416.39 30.03 416.39 30.03 M 415.96 40.25 C 417.5 38.1 419.71 35.71 421.86 33.46 M 415.96 40.25 C 417.96 37.83 419.59 35.46 421.86 33.46" fill="none" stroke="#036897" stroke-linejoin="round" stroke-linecap="round" stroke-miterlimit="10" pointer-events="none"/><path d="M 418.89 43.53 M 418.89 43.53 C 417.55 43.93 416.38 42.34 416.21 43.53 M 418.89 43.53 C 417.33 44.57 414.93 42.07 416.21 43.53 M 416.21 43.53 C 415.14 42.18 413.79 40.77 415.13 39.27 M 416.21 43.53 C 413.54 40.84 413.24 40.62 415.13 39.27 M 415.13 39.27 C 413.32 41.14 413.19 37.71 412.99 39.27 M 415.13 39.27 C 413.07 39.91 415.04 39.93 412.99 39.27 M 412.99 39.27 C 413.12 37.41 413.09 38.68 412.99 37.15 M 412.99 39.27 C 410.89 38.56 412.42 39.28 412.99 37.15 M 412.99 37.15 C 412.23 34.94 412.71 37.34 412.99 36.62 M 412.99 37.15 C 412.7 37.8 412.81 36.53 412.99 36.62 M 412.99 36.62 C 412.47 35.96 411.35 34.39 412.99 34.49 M 412.99 36.62 C 414.85 32.63 414.28 34.16 412.99 34.49 M 412.99 34.49 C 415.82 35.62 416.49 35.51 415.13 34.49 M 412.99 34.49 C 413.54 36.45 414.75 34.65 415.13 34.49 M 415.13 34.49 C 415.82 33.21 415.17 31.83 416.21 30.24 M 415.13 34.49 C 414.64 36.12 417.23 29.69 416.21 30.24 M 416.21 30.24 C 418.2 31.9 418.64 28.97 418.89 30.24 M 416.21 30.24 C 418.1 32.48 418.79 30.93 418.89 30.24 M 418.89 30.24 C 419.62 32.27 419.99 36.23 418.89 43.53 M 418.89 30.24 C 419.51 34.94 419.16 39.22 418.89 43.53" fill="none" stroke="#ffffff" stroke-width="1.59" stroke-linejoin="round" stroke-linecap="round" stroke-miterlimit="10" pointer-events="none"/></svg>