<svg xmlns="http://www.w3.org/2000/svg" version="1.1" height="64px" width="85px" viewBox="-10 -10 105 84" content="&lt;mxGraphModel dx=&quot;978&quot; dy=&quot;499&quot; grid=&quot;1&quot; gridSize=&quot;10&quot; guides=&quot;1&quot; tooltips=&quot;1&quot; connect=&quot;1&quot; arrows=&quot;1&quot; fold=&quot;1&quot; page=&quot;0&quot; pageScale=&quot;1&quot; pageWidth=&quot;827&quot; pageHeight=&quot;1169&quot; math=&quot;0&quot; shadow=&quot;0&quot;&gt;&lt;root&gt;&lt;mxCell id=&quot;0&quot;/&gt;&lt;mxCell id=&quot;1&quot; parent=&quot;0&quot;/&gt;&lt;mxCell id=&quot;2&quot; value=&quot;&quot; style=&quot;shape=mxgraph.cisco.computers_and_peripherals.workstation;html=1;pointerEvents=1;dashed=0;fillColor=#036897;strokeColor=#ffffff;strokeWidth=2;verticalLabelPosition=bottom;verticalAlign=top;align=center;outlineConnect=0;&quot; vertex=&quot;1&quot; parent=&quot;1&quot;&gt;&lt;mxGeometry x=&quot;-10&quot; y=&quot;50&quot; width=&quot;83&quot; height=&quot;62&quot; as=&quot;geometry&quot;/&gt;&lt;/mxCell&gt;&lt;/root&gt;&lt;/mxGraphModel&gt;"><style type="text/css"></style><path d="M 1.18 0.8 C 1.18 0.8 1.18 0.8 1.18 0.8 M 1.18 0.8 C 1.18 0.8 1.18 0.8 1.18 0.8 M 1.31 12.84 C 6.64 7.34 8.93 2.78 11.81 0.76 M 1.31 12.84 C 3.84 10.37 6.23 5.71 11.81 0.76 M 0.79 25.63 C 7.91 16.22 15.83 10.68 22.44 0.73 M 0.79 25.63 C 5.28 19.75 11.8 13.46 22.44 0.73 M 0.92 37.67 C 9.53 27.18 18.72 17.32 33.07 0.69 M 0.92 37.67 C 10.27 27.54 19.92 16.86 33.07 0.69 M 1.05 49.71 C 15.47 30.08 34.13 13.06 43.7 0.66 M 1.05 49.71 C 13.94 33.85 27.73 19.02 43.7 0.66 M 1.19 61.75 C 22.71 38.59 39.11 17.12 54.33 0.62 M 1.19 61.75 C 14.77 47.85 27.36 31.9 54.33 0.62 M 6.57 67.76 C 26.47 45.49 47.34 20.26 64.3 1.34 M 6.57 67.76 C 28.21 44.42 47.94 21.3 64.3 1.34 M 17.2 67.72 C 32.56 52.36 43.81 36.05 74.93 1.31 M 17.2 67.72 C 29.2 52.36 43.16 37.14 74.93 1.31 M 27.83 67.69 C 46.54 48.24 63.76 27.37 84.91 2.03 M 27.83 67.69 C 40.31 54.22 52.06 39.89 84.91 2.03 M 38.46 67.65 C 56.08 48.84 70.21 30.08 85.04 14.07 M 38.46 67.65 C 53.03 51.32 67.46 33.48 85.04 14.07 M 49.09 67.62 C 61.58 52.74 72.47 41.29 85.17 26.11 M 49.09 67.62 C 56.42 57.77 65.66 49.04 85.17 26.11 M 59.72 67.59 C 66.83 59.89 73.51 52.29 85.31 38.15 M 59.72 67.59 C 67.32 59.7 76.25 50.45 85.31 38.15 M 70.35 67.55 C 76.12 60.15 82.41 53.55 84.78 50.95 M 70.35 67.55 C 75.16 63.09 79.2 57.76 84.78 50.95" fill="none" stroke="" stroke-linejoin="round" stroke-linecap="round" stroke-miterlimit="10" pointer-events="none"/><path d="M 68.76 54.06 M 68.76 54.06 C 67.83 54.56 65.92 52.87 70.34 50.91 M 68.76 54.06 C 67.61 50.82 63.04 49.85 70.34 50.91 M 70.34 50.91 C 73.35 50.11 83.78 44.68 59.83 44.09 M 70.34 50.91 C 72.36 52.62 82.75 42.78 59.83 44.09" fill="none" stroke="#000000" stroke-width="2" stroke-linejoin="round" stroke-linecap="round" stroke-miterlimit="10" pointer-events="none"/><path d="M 14.23 46.59 C 14.23 46.59 14.23 46.59 14.23 46.59 M 14.23 46.59 C 14.23 46.59 14.23 46.59 14.23 46.59 M 16.98 55.61 C 18.86 54.61 20.62 52.38 24.86 46.55 M 16.98 55.61 C 20.48 52.1 22.81 48.66 24.86 46.55 M 27.61 55.58 C 30.17 54 32.5 49.89 35.49 46.52 M 27.61 55.58 C 29.84 52.99 32.85 50.08 35.49 46.52 M 38.24 55.54 C 40.29 52.14 45.19 47.63 46.12 46.49 M 38.24 55.54 C 40.48 53.31 42.32 50.3 46.12 46.49 M 48.87 55.51 C 51.49 53.75 52.84 50.8 54.78 48.72 M 48.87 55.51 C 49.97 54.28 52.1 52.68 54.78 48.72" fill="none" stroke="#036897" stroke-linejoin="round" stroke-linecap="round" stroke-miterlimit="10" pointer-events="none"/><path d="M 52.77 46.97 C 52.77 46.97 52.77 46.97 52.77 46.97 M 52.77 46.97 C 52.77 46.97 52.77 46.97 52.77 46.97" fill="none" stroke="#036897" stroke-linejoin="round" stroke-linecap="round" stroke-miterlimit="10" pointer-events="none"/><path d="M 14.23 46.59 C 14.23 46.59 14.23 46.59 14.23 46.59 M 14.23 46.59 C 14.23 46.59 14.23 46.59 14.23 46.59 M 16.98 55.61 C 18.8 53.2 20.9 51.21 24.86 46.55 M 16.98 55.61 C 19.28 53.25 21.88 50.51 24.86 46.55 M 27.61 55.58 C 29.69 51.18 34.47 48.34 35.49 46.52 M 27.61 55.58 C 29.81 52.38 32.59 49.79 35.49 46.52 M 38.24 55.54 C 42.3 51.8 43.2 49.19 46.12 46.49 M 38.24 55.54 C 40.62 53.83 42.23 51.09 46.12 46.49 M 48.87 55.51 C 50.81 53.49 53.4 49.97 54.78 48.72 M 48.87 55.51 C 51.42 52.97 53.34 50.58 54.78 48.72" fill="none" stroke="#036897" stroke-linejoin="round" stroke-linecap="round" stroke-miterlimit="10" pointer-events="none"/><path d="M 52.77 46.97 C 52.77 46.97 52.77 46.97 52.77 46.97 M 52.77 46.97 C 52.77 46.97 52.77 46.97 52.77 46.97" fill="none" stroke="#036897" stroke-linejoin="round" stroke-linecap="round" stroke-miterlimit="10" pointer-events="none"/><path d="M 10.01 45.58 C 10.01 45.58 10.01 45.58 10.01 45.58 M 10.01 45.58 C 10.01 45.58 10.01 45.58 10.01 45.58 M 20.64 45.54 C 21.88 44.44 22.4 43.34 23.27 42.52 M 20.64 45.54 C 21.52 44.69 22.34 43.5 23.27 42.52 M 31.27 45.51 C 32.34 44.18 33.09 43.54 33.9 42.49 M 31.27 45.51 C 31.74 44.72 32.57 44.14 33.9 42.49 M 41.9 45.47 C 42.66 44.68 43.36 43.89 44.53 42.45 M 41.9 45.47 C 42.65 44.76 43.69 43.77 44.53 42.45 M 52.53 45.44 C 53.59 44.07 54.74 42.87 55.16 42.42 M 52.53 45.44 C 53.41 44.64 54.14 43.67 55.16 42.42" fill="none" stroke="#036897" stroke-linejoin="round" stroke-linecap="round" stroke-miterlimit="10" pointer-events="none"/><path d="M 10.01 45.58 C 10.01 45.58 10.01 45.58 10.01 45.58 M 10.01 45.58 C 10.01 45.58 10.01 45.58 10.01 45.58 M 14.74 52.33 C 16.42 49.51 19.94 47.93 20.64 45.54 M 14.74 52.33 C 16.3 50.86 17.66 49.39 20.64 45.54 M 25.37 52.3 C 27.86 50.33 29.18 46.86 31.27 45.51 M 25.37 52.3 C 27.09 49.95 28.72 48.78 31.27 45.51 M 36 52.27 C 37.98 50.79 39.14 48.63 41.9 45.47 M 36 52.27 C 36.85 50.43 38.54 49.68 41.9 45.47 M 46.63 52.23 C 48.91 49.75 49.46 47.63 52.53 45.44 M 46.63 52.23 C 47.87 50.79 50.03 48.69 52.53 45.44" fill="none" stroke="#036897" stroke-linejoin="round" stroke-linecap="round" stroke-miterlimit="10" pointer-events="none"/><path d="M 14.13 52.49 M 14.13 52.49 C 13.93 51.51 14.61 49.72 14.13 46.7 M 14.13 52.49 C 14.05 50.91 14.23 49.3 14.13 46.7 M 14.13 46.7 C 24.59 46.14 31.17 47.21 53 46.7 M 14.13 46.7 C 22.89 46.88 31.9 47.11 53 46.7 M 53 46.7 C 52.88 48.69 52.87 50.27 53 52.49 M 53 46.7 C 52.77 48.7 53.14 51.02 53 52.49 M 53 52.49 C 39.49 51.34 28.63 51.26 14.13 52.49 M 53 52.49 C 38.38 51.96 22.87 52.81 14.13 52.49 M 53 52.49 M 53 52.49 C 53.41 50.18 53.53 48.47 53 46.7 M 53 52.49 C 52.67 50.98 53.09 49.05 53 46.7 M 53 46.7 C 54.81 43.25 58.83 40.35 60.36 38.82 M 53 46.7 C 56.04 43.24 58.36 40.36 60.36 38.82 M 60.36 38.82 C 60.85 40.66 60.71 42.81 60.36 44.61 M 60.36 38.82 C 60.14 40.27 60.27 41.5 60.36 44.61 M 60.36 44.61 C 59.58 46.12 56.96 48.84 53 52.49 M 60.36 44.61 C 57.67 47.34 55.61 49.15 53 52.49 M 14.13 53.54 M 14.13 53.54 C 14.56 50.95 14.61 48.72 14.13 46.7 M 14.13 53.54 C 14.19 52.29 14.15 50.33 14.13 46.7 M 14.13 46.7 C 26.23 44.44 38.27 46.1 53 46.7 M 14.13 46.7 C 29.1 46.61 45.64 47.75 53 46.7 M 53 46.7 C 52.36 48.73 52.41 49.97 53 53.54 M 53 46.7 C 52.77 48.57 52.77 51.23 53 53.54 M 53 53.54 C 41.26 54.99 26.73 54.26 14.13 53.54 M 53 53.54 C 42.07 53.28 30.03 53.91 14.13 53.54 M 53 53.54 M 53 53.54 C 52.48 50.83 52.61 48.95 53 46.7 M 53 53.54 C 52.9 51.18 52.71 48.7 53 46.7 M 53 46.7 C 54.96 45.28 56.22 41.88 60.36 38.82 M 53 46.7 C 55.92 43.57 58.46 40.71 60.36 38.82 M 60.36 38.82 C 60.85 40.4 59.74 42.31 60.36 45.66 M 60.36 38.82 C 60.36 40.31 60.16 42.47 60.36 45.66 M 60.36 45.66 C 58.16 48.14 57.36 48.06 53 53.54 M 60.36 45.66 C 58.45 47.56 55.86 50.66 53 53.54 M 63.51 37.78 M 63.51 37.78 C 60.66 40.49 58.73 42.62 57.73 45.66 M 63.51 37.78 C 61.13 40.59 58.9 43.87 57.73 45.66 M 57.73 45.66 C 46.8 46.3 33.87 45 9.94 45.66 M 57.73 45.66 C 43.98 46.01 28.69 45.81 9.94 45.66 M 9.94 45.66 C 12.43 42.83 14.59 42.09 17.28 37.78 M 9.94 45.66 C 11.78 43.55 13.75 42.16 17.28 37.78 M 17.28 37.78 C 36.77 38.68 54.72 40.01 63.51 37.78 M 17.28 37.78 C 27.27 36.83 36.83 37.85 63.51 37.78 M 9.94 48.28 M 9.94 48.28 C 10.12 47.51 9.86 46.68 9.94 45.66 M 9.94 48.28 C 10.07 47.59 10.08 47.05 9.94 45.66 M 9.94 45.66 C 21.32 46.46 28.5 46.65 55.63 45.66 M 9.94 45.66 C 22.7 45.6 33.68 45.98 55.63 45.66 M 55.63 45.66 C 55.84 46.52 55.5 47.36 55.63 48.28 M 55.63 45.66 C 55.62 46.14 55.65 46.82 55.63 48.28 M 55.63 48.28 C 41.1 49.32 24.94 49 9.94 48.28 M 55.63 48.28 C 45.69 48.43 36.31 48.98 9.94 48.28" fill="none" stroke="#ffffff" stroke-width="2" stroke-linejoin="round" stroke-linecap="round" stroke-miterlimit="10" pointer-events="none"/><path d="M 10.01 45.58 C 10.01 45.58 10.01 45.58 10.01 45.58 M 10.01 45.58 C 10.01 45.58 10.01 45.58 10.01 45.58 M 20.64 45.54 C 21.27 45.21 21.86 44.46 23.27 42.52 M 20.64 45.54 C 21.81 44.37 22.58 43.23 23.27 42.52 M 31.27 45.51 C 32.13 44.98 32.9 43.61 33.9 42.49 M 31.27 45.51 C 32.01 44.65 33.02 43.68 33.9 42.49 M 41.9 45.47 C 42.59 44.34 44.22 42.83 44.53 42.45 M 41.9 45.47 C 42.65 44.73 43.26 43.73 44.53 42.45 M 52.53 45.44 C 53.69 44.66 54.3 43.35 55.16 42.42 M 52.53 45.44 C 53.02 44.89 53.97 44.18 55.16 42.42" fill="none" stroke="#036897" stroke-linejoin="round" stroke-linecap="round" stroke-miterlimit="10" pointer-events="none"/><path d="M 63.51 37.78 M 63.51 37.78 C 62.23 39.93 59.24 42.63 57.73 45.66 M 63.51 37.78 C 61.8 40.26 60.02 41.46 57.73 45.66 M 57.73 45.66 C 42.72 43.89 28.74 46.21 9.94 45.66 M 57.73 45.66 C 46 45.95 36.22 45.51 9.94 45.66 M 9.94 45.66 C 11.66 43.57 13.62 41.86 17.28 37.78 M 9.94 45.66 C 12.07 43.61 14.49 41.22 17.28 37.78 M 17.28 37.78 C 32.58 35.88 52.53 36.61 63.51 37.78 M 17.28 37.78 C 31.17 37.12 46.06 37.49 63.51 37.78" fill="none" stroke="#ffffff" stroke-width="2" stroke-linejoin="round" stroke-linecap="round" stroke-miterlimit="10" pointer-events="none"/><path d="M 10.01 45.58 C 10.01 45.58 10.01 45.58 10.01 45.58 M 10.01 45.58 C 10.01 45.58 10.01 45.58 10.01 45.58 M 14.74 52.33 C 16.15 51.59 17.47 49.91 20.64 45.54 M 14.74 52.33 C 17.36 49.7 19.11 47.12 20.64 45.54 M 25.37 52.3 C 27.29 51.12 29.03 48.04 31.27 45.51 M 25.37 52.3 C 27.03 50.36 29.29 48.18 31.27 45.51 M 36 52.27 C 37.53 49.71 41.21 46.33 41.9 45.47 M 36 52.27 C 37.68 50.59 39.06 48.33 41.9 45.47 M 46.63 52.23 C 49.24 50.47 50.59 47.52 52.53 45.44 M 46.63 52.23 C 47.72 51 49.85 49.4 52.53 45.44" fill="none" stroke="#036897" stroke-linejoin="round" stroke-linecap="round" stroke-miterlimit="10" pointer-events="none"/><path d="M 9.94 48.28 M 9.94 48.28 C 10.2 47.15 9.96 46.17 9.94 45.66 M 9.94 48.28 C 9.9 47.7 9.83 46.76 9.94 45.66 M 9.94 45.66 C 24.41 44.17 39.91 46.49 55.63 45.66 M 9.94 45.66 C 20.15 45.51 32.3 45.06 55.63 45.66 M 55.63 45.66 C 55.54 46.5 55.48 47.44 55.63 48.28 M 55.63 45.66 C 55.61 46.44 55.69 47.12 55.63 48.28 M 55.63 48.28 C 37.68 46.45 24.39 47.17 9.94 48.28 M 55.63 48.28 C 41.03 47.64 27.44 48.01 9.94 48.28" fill="none" stroke="#ffffff" stroke-width="2" stroke-linejoin="round" stroke-linecap="round" stroke-miterlimit="10" pointer-events="none"/><path d="M 55.72 45.56 C 55.72 45.56 55.72 45.56 55.72 45.56 M 55.72 45.56 C 55.72 45.56 55.72 45.56 55.72 45.56" fill="none" stroke="#036897" stroke-linejoin="round" stroke-linecap="round" stroke-miterlimit="10" pointer-events="none"/><path d="M 9.8 4.31 C 9.8 4.31 9.8 4.31 9.8 4.31 M 9.8 4.31 C 9.8 4.31 9.8 4.31 9.8 4.31 M 20.43 4.28 C 21.28 3.75 22.06 2.38 23.05 1.26 M 20.43 4.28 C 21.17 3.42 22.17 2.45 23.05 1.26 M 31.06 4.25 C 31.57 3.39 32.79 2.27 33.03 1.98 M 31.06 4.25 C 31.62 3.69 32.08 2.93 33.03 1.98 M 41.69 4.21 C 42.56 3.62 43.01 2.64 43.66 1.95 M 41.69 4.21 C 42.05 3.8 42.76 3.27 43.66 1.95 M 52.32 4.18 C 53.32 3.15 53.75 2.29 54.29 1.91 M 52.32 4.18 C 52.79 3.71 53.24 2.84 54.29 1.91" fill="none" stroke="#036897" stroke-linejoin="round" stroke-linecap="round" stroke-miterlimit="10" pointer-events="none"/><path d="M 14.69 40.37 C 14.69 40.37 14.69 40.37 14.69 40.37 M 14.69 40.37 C 14.69 40.37 14.69 40.37 14.69 40.37 M 20.73 45.62 C 21.79 44.21 23.01 43.05 25.32 40.33 M 20.73 45.62 C 22.06 44.24 23.58 42.64 25.32 40.33 M 31.36 45.58 C 32.57 43.01 35.36 41.36 35.95 40.3 M 31.36 45.58 C 32.64 43.71 34.26 42.21 35.95 40.3 M 41.99 45.55 C 44.35 43.36 44.88 41.84 46.58 40.26 M 41.99 45.55 C 43.37 44.55 44.31 42.95 46.58 40.26" fill="none" stroke="#036897" stroke-linejoin="round" stroke-linecap="round" stroke-miterlimit="10" pointer-events="none"/><path d="M 53.62 39.76 C 53.62 39.76 53.62 39.76 53.62 39.76 M 53.62 39.76 C 53.62 39.76 53.62 39.76 53.62 39.76" fill="none" stroke="#036897" stroke-linejoin="round" stroke-linecap="round" stroke-miterlimit="10" pointer-events="none"/><path d="M 55.63 48.28 M 55.63 48.28 C 55.88 47.74 55.57 47.03 55.63 45.66 M 55.63 48.28 C 55.5 47.72 55.6 47.12 55.63 45.66 M 55.63 45.66 C 58.4 43.7 60.42 41.16 63.51 37.78 M 55.63 45.66 C 57.4 44.23 59.04 42.13 63.51 37.78 M 63.51 37.78 C 63.74 38.64 63.49 39.51 63.51 40.4 M 63.51 37.78 C 63.57 38.65 63.57 39.29 63.51 40.4 M 63.51 40.4 C 61.76 41.79 59.12 45.06 55.63 48.28 M 63.51 40.4 C 61.48 41.84 60.46 43.83 55.63 48.28 M 63.51 1 M 63.51 1 C 53.21 1.25 42.75 1.16 22.01 1 M 63.51 1 C 50.8 2.04 39.66 1.59 22.01 1 M 22.01 1 C 17.46 1.6 13.18 2.74 9.94 4.15 M 22.01 1 C 18.49 2.56 14.55 3.37 9.94 4.15 M 9.94 4.15 C 24.4 3.13 40.93 5.37 57.73 4.15 M 9.94 4.15 C 21.91 5.33 32.19 5.53 57.73 4.15 M 57.73 4.15 C 59.48 2.74 62.59 2.25 63.51 1 M 57.73 4.15 C 59.23 3.54 60.59 2.92 63.51 1 M 55.63 41.98 M 55.63 41.98 C 54.88 41.55 53.79 40.69 53.52 40.4 M 55.63 41.98 C 55.01 41.4 54.37 41.18 53.52 40.4 M 53.52 40.4 C 42.17 42.07 29.15 41.79 14.66 40.4 M 53.52 40.4 C 43.97 39.68 36.16 41.35 14.66 40.4 M 14.66 40.4 C 15.43 40.77 15.71 41.24 16.76 41.98 M 14.66 40.4 C 15.09 40.87 15.81 41.15 16.76 41.98 M 16.76 41.98 C 23.98 42.65 34.36 40.61 55.63 41.98 M 16.76 41.98 C 26.6 41.4 37.32 41.03 55.63 41.98 M 56.15 41.98 M 56.15 41.98 C 55.83 41.33 54.85 41.03 53.52 39.88 M 56.15 41.98 C 55.47 41.49 54.84 41.03 53.52 39.88 M 53.52 39.88 C 56.77 37.99 60.2 35.39 63.51 34.63 M 53.52 39.88 C 56.95 37.43 61.51 35.59 63.51 34.63 M 63.51 34.63 C 60.82 35.94 59.26 37.78 57.21 40.94 M 63.51 34.63 C 61.29 36.8 58.63 39.62 57.21 40.94 M 57.21 40.94 C 56.97 41.16 56.66 41.53 56.15 41.98 M 57.21 40.94 C 56.84 41.3 56.63 41.54 56.15 41.98" fill="none" stroke="#ffffff" stroke-width="2" stroke-linejoin="round" stroke-linecap="round" stroke-miterlimit="10" pointer-events="none"/><path d="M 58.01 3.83 C 58.01 3.83 58.01 3.83 58.01 3.83 M 58.01 3.83 C 58.01 3.83 58.01 3.83 58.01 3.83 M 57.49 16.62 C 59.99 15.29 62.34 12.31 67.99 4.55 M 57.49 16.62 C 62.15 11.94 65.26 7.36 67.99 4.55 M 57.62 28.66 C 61.03 26.56 64.13 21.08 68.12 16.59 M 57.62 28.66 C 60.58 25.22 64.6 21.34 68.12 16.59 M 58.41 39.95 C 60.8 35.98 66.52 30.71 67.6 29.38 M 58.41 39.95 C 61.02 37.34 63.17 33.83 67.6 29.38" fill="none" stroke="#036897" stroke-linejoin="round" stroke-linecap="round" stroke-miterlimit="10" pointer-events="none"/><path d="M 57.73 4.15 M 57.73 4.15 C 58.19 19.48 56.21 32.22 57.73 39.88 M 57.73 4.15 C 57.07 13.44 58.68 21.98 57.73 39.88 M 57.73 39.88 C 60.56 37.43 61.92 35.43 63.51 34.63 M 57.73 39.88 C 59.14 38.85 60.48 36.75 63.51 34.63 M 63.51 34.63 C 63.89 22.4 64.98 14.11 63.51 1 M 63.51 34.63 C 62.9 26.8 64.34 18.46 63.51 1 M 63.51 1 C 61.53 2.07 59.66 3.4 57.73 4.15 M 63.51 1 C 61.87 2.02 60.48 2.78 57.73 4.15 M 57.73 4.15 C 57.73 4.15 57.73 4.15 57.73 4.15 M 57.73 4.15 C 57.73 4.15 57.73 4.15 57.73 4.15" fill="none" stroke="#ffffff" stroke-width="2" stroke-linejoin="round" stroke-linecap="round" stroke-miterlimit="10" pointer-events="none"/><path d="M 9.8 4.31 C 9.8 4.31 9.8 4.31 9.8 4.31 M 9.8 4.31 C 9.8 4.31 9.8 4.31 9.8 4.31 M 9.93 16.35 C 12.43 15.03 14.79 12.04 20.43 4.28 M 9.93 16.35 C 14.59 11.68 17.7 7.09 20.43 4.28 M 10.06 28.4 C 16.51 23.25 22.6 13.84 31.06 4.25 M 10.06 28.4 C 16.23 21.31 23.72 13.61 31.06 4.25 M 10.2 40.44 C 20.77 26.46 36.2 10.57 41.69 4.21 M 10.2 40.44 C 18.9 30.97 27 20.19 41.69 4.21 M 20.83 40.4 C 33.76 28.54 43.74 13.96 52.32 4.18 M 20.83 40.4 C 27.62 32.75 36.73 24.16 52.32 4.18 M 31.46 40.37 C 44.2 26.69 52.97 14.19 60.98 6.41 M 31.46 40.37 C 38.99 32.36 46.33 21.53 60.98 6.41 M 42.09 40.33 C 48.14 32.1 55.02 27.75 60.46 19.2 M 42.09 40.33 C 45.82 35.35 51.57 29.94 60.46 19.2 M 52.72 40.3 C 54.54 37.89 56.64 35.9 60.59 31.24 M 52.72 40.3 C 55.01 37.94 57.61 35.19 60.59 31.24" fill="none" stroke="#036897" stroke-linejoin="round" stroke-linecap="round" stroke-miterlimit="10" pointer-events="none"/><path d="M 59.66 51.63 C 59.66 51.63 59.66 51.63 59.66 51.63 M 59.66 51.63 C 59.66 51.63 59.66 51.63 59.66 51.63" fill="none" stroke="#036897" stroke-linejoin="round" stroke-linecap="round" stroke-miterlimit="10" pointer-events="none"/><path d="M 0.79 60.09 C 0.79 60.09 0.79 60.09 0.79 60.09 M 0.79 60.09 C 0.79 60.09 0.79 60.09 0.79 60.09 M 5.52 66.85 C 7.46 64.82 10.04 61.3 11.42 60.05 M 5.52 66.85 C 8.07 64.31 9.99 61.92 11.42 60.05 M 16.15 66.81 C 18.39 65.45 18.73 63.54 22.05 60.02 M 16.15 66.81 C 17.06 65.35 18.75 63.79 22.05 60.02 M 26.78 66.78 C 28.87 65.06 30.36 62.87 32.68 59.98 M 26.78 66.78 C 28.12 65.54 29.35 63.75 32.68 59.98 M 37.41 66.74 C 40.2 64.26 41.36 61.8 43.31 59.95 M 37.41 66.74 C 39.38 64.83 41.22 62.15 43.31 59.95 M 48.04 66.71 C 50.45 63.72 52.13 62.27 53.94 59.92 M 48.04 66.71 C 49.08 64.93 50.96 63.63 53.94 59.92" fill="none" stroke="#036897" stroke-linejoin="round" stroke-linecap="round" stroke-miterlimit="10" pointer-events="none"/><path d="M 64.7 53.37 C 64.7 53.37 64.7 53.37 64.7 53.37 M 64.7 53.37 C 64.7 53.37 64.7 53.37 64.7 53.37" fill="none" stroke="#036897" stroke-linejoin="round" stroke-linecap="round" stroke-miterlimit="10" pointer-events="none"/><path d="M 60.74 60.53 C 60.74 60.53 60.74 60.53 60.74 60.53 M 60.74 60.53 C 60.74 60.53 60.74 60.53 60.74 60.53" fill="none" stroke="#036897" stroke-linejoin="round" stroke-linecap="round" stroke-miterlimit="10" pointer-events="none"/><path d="M 72.47 53.49 C 72.47 53.49 72.47 53.49 72.47 53.49 M 72.47 53.49 C 72.47 53.49 72.47 53.49 72.47 53.49" fill="none" stroke="#036897" stroke-linejoin="round" stroke-linecap="round" stroke-miterlimit="10" pointer-events="none"/><path d="M 7.43 51.28 C 7.43 51.28 7.43 51.28 7.43 51.28 M 7.43 51.28 C 7.43 51.28 7.43 51.28 7.43 51.28 M 6.25 64.83 C 11.24 60.89 13.87 53.96 18.06 51.25 M 6.25 64.83 C 9.69 60.12 12.96 57.8 18.06 51.25 M 16.88 64.8 C 20.84 61.85 23.16 57.52 28.69 51.21 M 16.88 64.8 C 18.59 61.13 21.96 59.62 28.69 51.21 M 27.51 64.76 C 32.07 59.8 33.18 55.57 39.32 51.18 M 27.51 64.76 C 30 61.89 34.31 57.67 39.32 51.18 M 38.14 64.73 C 39.94 62.58 44.49 57.93 49.95 51.14 M 38.14 64.73 C 40.97 60.87 44.59 57 49.95 51.14 M 48.77 64.69 C 52.76 61.11 53.36 59.09 59.92 51.86 M 48.77 64.69 C 51.03 61.77 53.56 58.95 59.92 51.86" fill="none" stroke="#036897" stroke-linejoin="round" stroke-linecap="round" stroke-miterlimit="10" pointer-events="none"/><path d="M 57.73 40.4 M 57.73 40.4 C 57.48 27.9 57.46 14.01 57.73 4.15 M 57.73 40.4 C 57.04 25.62 58.29 11.98 57.73 4.15 M 57.73 4.15 C 41.56 3.05 28.06 2.96 9.94 4.15 M 57.73 4.15 C 39.67 3.63 20.72 4.49 9.94 4.15 M 9.94 4.15 C 11.22 14.19 11.64 26.31 9.94 40.4 M 9.94 4.15 C 9.25 15.39 10.72 25.18 9.94 40.4 M 9.94 40.4 C 25.65 39.05 45.34 38.92 57.73 40.4 M 9.94 40.4 C 28.36 39.68 45.54 39.86 57.73 40.4 M 54.06 63 M 54.06 63 C 54.3 61.54 54.22 60.24 54.06 59.85 M 54.06 63 C 53.96 62.19 54.03 61.26 54.06 59.85 M 54.06 59.85 C 56.44 57.17 57.21 55.69 59.83 51.43 M 54.06 59.85 C 55.37 57.5 57.32 54.34 59.83 51.43 M 59.83 51.43 C 60.07 53.26 60.11 55.37 59.83 56.7 M 59.83 51.43 C 59.98 52.76 59.95 53.55 59.83 56.7 M 59.83 56.7 C 57.64 57.99 55.43 60.76 54.06 63 M 59.83 56.7 C 57.33 59.06 55.49 62.05 54.06 63 M 54.06 59.85 M 54.06 59.85 C 53.77 60.79 53.79 61.36 54.06 63 M 54.06 59.85 C 53.96 60.71 53.95 61.94 54.06 63 M 54.06 63 C 37.8 64.56 18.75 63.83 1 63 M 54.06 63 C 38.84 62.73 22.5 63.36 1 63 M 1 63 C 0.76 61.75 0.82 60.88 1 59.85 M 1 63 C 0.95 61.91 0.87 60.77 1 59.85 M 1 59.85 C 15.17 60.73 27.93 58.29 54.06 59.85 M 1 59.85 C 22.16 59.75 42.56 60.28 54.06 59.85 M 68.76 60.37 M 68.76 60.37 C 70.35 58.46 70.02 56.95 72.43 53.54 M 68.76 60.37 C 69.61 58.2 70.36 56.81 72.43 53.54 M 72.43 53.54 C 70.35 54.19 69.26 52.97 64.55 53.54 M 72.43 53.54 C 70.32 53.29 67.7 53.89 64.55 53.54 M 64.55 53.54 C 62.6 55.89 61.38 57.77 60.88 60.37 M 64.55 53.54 C 62.98 55.97 61.54 58.78 60.88 60.37 M 60.88 60.37 C 63.7 60.83 65.74 60.32 68.76 60.37 M 60.88 60.37 C 63.61 60.39 65.72 60.31 68.76 60.37 M 60.88 60.37 M 60.88 60.37 C 63.45 59.9 65.73 60.97 68.76 60.37 M 60.88 60.37 C 62.87 60.26 64.93 60.66 68.76 60.37 M 68.76 60.37 C 68.93 61.47 68.9 62.68 68.76 63 M 68.76 60.37 C 68.85 60.78 68.87 61.45 68.76 63 M 68.76 63 C 67.27 62.72 64.4 62.32 60.88 63 M 68.76 63 C 67.23 62.84 65.4 63.12 60.88 63 M 60.88 63 C 61.1 62.56 60.76 62.02 60.88 60.37 M 60.88 63 C 60.95 62.34 60.77 61.68 60.88 60.37 M 68.76 63 M 68.76 63 C 68.96 62.07 68.61 61.11 68.76 60.37 M 68.76 63 C 68.73 62.34 68.76 61.89 68.76 60.37 M 68.76 60.37 C 70.71 58.4 72.09 55.83 72.43 53.54 M 68.76 60.37 C 69.43 58.84 70.33 57.6 72.43 53.54 M 72.43 53.54 C 72.94 54.73 72.26 56.45 72.43 58.27 M 72.43 53.54 C 72.24 55.39 72.33 56.56 72.43 58.27 M 72.43 58.27 C 71.54 60.01 69.75 62.04 68.76 63 M 72.43 58.27 C 71.25 59.34 70.56 60.52 68.76 63 M 54.06 59.85 M 54.06 59.85 C 35.17 58.95 14.04 61.08 1 59.85 M 54.06 59.85 C 35.46 61.18 15.33 59.32 1 59.85 M 1 59.85 C 2.2 56.44 5.03 55.25 7.3 51.43 M 1 59.85 C 3.03 57.49 4.52 54.7 7.3 51.43 M 7.3 51.43 C 28.84 50.73 44.86 51.67 59.83 51.43 M 7.3 51.43 C 21.42 50.5 35.6 51.04 59.83 51.43 M 59.83 51.43 C 57.63 55.04 56.61 56.06 54.06 59.85 M 59.83 51.43 C 57.75 54.09 55.92 56.26 54.06 59.85" fill="none" stroke="#ffffff" stroke-width="2" stroke-linejoin="round" stroke-linecap="round" stroke-miterlimit="10" pointer-events="none"/><path d="M 16.76 7.84 M 16.76 7.84 C 48.38 9.39 51.2 9.28 50.37 7.84 M 16.76 7.84 C 48.16 5.65 48.32 6.26 50.37 7.84 M 50.37 7.84 C 52.86 7.56 54.36 10.01 54.58 11.51 M 50.37 7.84 C 51.87 10.07 53.33 8.11 54.58 11.51 M 54.58 11.51 C 53.77 32.88 56.58 32.59 54.58 33.06 M 54.58 11.51 C 56.86 35.31 52.69 34.44 54.58 33.06 M 54.58 33.06 C 55.53 35.62 51.3 38.26 50.37 37.25 M 54.58 33.06 C 54.18 36.33 51.96 37.98 50.37 37.25 M 50.37 37.25 C 18.34 38.05 15.76 37.52 16.76 37.25 M 50.37 37.25 C 17.02 35.55 15.85 38.01 16.76 37.25 M 16.76 37.25 C 15.68 37.67 15 36.21 13.09 33.06 M 16.76 37.25 C 13.96 35.3 13.39 36.62 13.09 33.06 M 13.09 33.06 C 11.8 10.97 13.45 11.14 13.09 11.51 M 13.09 33.06 C 13.48 12.38 12.3 10.34 13.09 11.51 M 13.09 11.51 C 14.68 7.96 13.82 8.56 16.76 7.84 M 13.09 11.51 C 15.12 7.97 15.74 6.42 16.76 7.84 M 16.76 7.84 C 16.76 7.84 16.76 7.84 16.76 7.84 M 16.76 7.84 C 16.76 7.84 16.76 7.84 16.76 7.84" fill="none" stroke="#ffffff" stroke-width="2" stroke-linejoin="round" stroke-linecap="round" stroke-miterlimit="10" pointer-events="none"/></svg>